<svg width="64" height="64" viewBox="0 0 64 64" fill="none" xmlns="http://www.w3.org/2000/svg">
<g clip-path="url(#clip0_189_43)">
<rect width="64" height="64" fill="#B36843"/>
<path d="M67.9885 42.7948C67.9885 45.2903 66.9519 47.018 64.4564 47.6707C63.7269 47.8626 62.8439 47.9778 61.8456 47.9778C58.6086 47.9778 56.7739 46.797 55.9434 45.1227C55.913 45.0614 55.851 45.0216 55.7825 45.0216V45.0216C55.7318 45.0216 55.6837 45.0434 55.6499 45.0812C54.5433 46.3198 53.1002 47.2934 51.2108 47.7091C50.4813 47.901 49.7135 47.9778 48.8304 47.9778C45.1831 47.9778 43.1866 45.8662 43.1866 43.2171C43.1866 40.6448 44.3768 38.9939 47.4483 37.9956C48.0242 37.8037 48.5233 37.6501 49.0224 37.4965C54.8965 35.5385 55.2804 35.1162 55.2804 33.5421C55.2804 31.9679 54.3206 30.2019 51.2108 30.2019C50.8276 30.2019 50.484 30.2302 50.1714 30.278C49.8552 30.3265 49.8696 30.8691 50.1358 31.0465V31.0465C50.8652 31.4688 51.2492 32.2751 51.2492 33.2349C51.2492 35.3081 49.5983 36.268 47.7554 36.268C46.9492 36.268 46.2581 36.076 45.6822 35.7689C44.7224 35.2314 44.1465 34.2331 44.1465 32.8894C44.1465 32.7358 44.1465 32.5438 44.1849 32.3903C44.492 29.7028 47.4099 27.2456 54.0135 27.2456C59.8876 27.2456 63.343 29.1653 63.6885 34.1947C63.7269 34.4635 63.7269 34.7322 63.7269 35.0394V42.91C63.7269 44.1001 64.034 44.4841 64.7251 44.4841C65.301 44.4841 65.7233 44.0617 65.7233 42.8716V42.3533C65.7233 41.7277 66.2304 41.2207 66.8559 41.2207V41.2207C67.4814 41.2207 67.9885 41.7277 67.9885 42.3533V42.7948ZM53.3608 43.8314C54.2438 43.8314 55.2804 43.1403 55.2804 41.6046V41.245C55.2804 39.5649 53.4317 38.2475 52.2754 39.4664C51.724 40.0477 51.4795 40.7258 51.4795 41.6046C51.4795 43.0251 52.209 43.8314 53.3608 43.8314Z" fill="#B36843"/>
<path d="M44.9149 25.6331L39.9876 45.7648C39.7248 46.8386 38.7623 47.5939 37.6568 47.5939H32.6059C31.53 47.5939 30.5857 46.8777 30.2954 45.8417L28.9121 40.905C28.2574 38.5688 24.9455 38.5688 24.2909 40.905L22.9076 45.8417C22.6173 46.8777 21.6729 47.5939 20.597 47.5939H15.3542C14.2487 47.5939 13.2862 46.8386 13.0234 45.7648L8.09606 25.6331C7.75052 24.2509 7.3282 23.5214 6.40676 23.5214H6.04203C5.26809 23.5214 4.64069 22.894 4.64069 22.1201V22.1201C4.64069 21.3462 5.26809 20.7188 6.04203 20.7188H18.2894C19.0633 20.7188 19.6907 21.3558 19.6907 22.1298V22.1298C19.6907 22.8931 19.0719 23.5214 18.3086 23.5214V23.5214C17.5023 23.5214 17.08 24.2509 17.3872 25.6331L18.7441 31.6185C19.2949 34.0481 22.7253 34.1328 23.3954 31.7334L24.6915 27.0922C24.8107 26.6653 24.8093 26.2137 24.6876 25.7876L24.6434 25.6331C24.2595 24.2509 23.8756 23.5214 22.9542 23.5214V23.5214C22.3392 23.5214 21.8408 23.023 21.8408 22.408V22.1201C21.8408 21.3462 22.4682 20.7188 23.2421 20.7188H34.6448C35.4188 20.7188 36.0462 21.3558 36.0462 22.1298V22.1298C36.0462 22.8931 35.4274 23.5214 34.664 23.5214V23.5214C33.8578 23.5214 33.397 24.2509 33.7426 25.6331L35.1785 31.1235C35.8138 33.5524 39.2809 33.4979 39.8394 31.0502L41.0757 25.6331C41.4596 23.9822 41.114 23.5214 40.1542 23.5214V23.5214C39.3909 23.5214 38.7721 22.8931 38.7721 22.1298V22.1298C38.7721 21.3558 39.3995 20.7188 40.1734 20.7188H46.969C47.7429 20.7188 48.3703 21.3462 48.3703 22.1201V22.1201C48.3703 22.894 47.7429 23.5214 46.969 23.5214H46.6042C45.6828 23.5214 45.2605 24.2509 44.9149 25.6331Z" fill="#B36843"/>
<mask id="path-3-outside-1_189_43" maskUnits="userSpaceOnUse" x="62.0366" y="19.0018" width="29" height="39" fill="black">
<rect fill="white" x="62.0366" y="19.0018" width="29" height="39"/>
<path d="M88.3251 48.3232C88.3251 44.9015 86.0189 42.9569 80.5693 42.8387L80.0321 42.8334V42.2335C82.9968 42.2335 85.2163 42.7271 86.7082 43.7608C88.0347 44.6798 88.7232 45.981 88.8857 47.5599V47.5917C88.8857 47.5929 88.8867 47.5939 88.8879 47.5939V47.5939C88.889 47.5939 88.8899 47.5947 88.89 47.5958C88.9131 47.8322 88.925 48.0748 88.925 48.3232C88.925 50.8785 87.6716 52.8972 85.4176 54.2466C83.1951 55.577 80.0105 56.2565 76.0777 56.2565C72.9073 56.2565 70.1108 56.0763 68.0923 55.4522C67.0792 55.1389 66.2111 54.6988 65.5914 54.0685C64.9555 53.4216 64.6124 52.605 64.6124 51.625C64.6125 50.815 64.8715 50.067 65.4338 49.4287C65.5554 49.2905 65.6899 49.1592 65.8369 49.0344C66.1636 48.7572 66.1722 48.2107 65.8424 47.9371C65.7433 47.8549 65.6486 47.7706 65.5582 47.6843C65.4154 47.548 65.4719 47.3131 65.6474 47.2228V47.2228C65.7643 47.1626 65.9031 47.1851 65.9988 47.2752C66.0852 47.3564 66.1763 47.4361 66.2723 47.5139C66.8166 47.9556 66.7882 49.022 66.2501 49.4712C65.5342 50.0687 65.2124 50.7956 65.2123 51.625L65.2158 51.7779C65.35 54.8488 69.561 55.6091 75.489 55.6543L76.0777 55.6566C83.712 55.6566 88.1839 53.0521 88.3216 48.5394L88.3251 48.3232ZM81.4287 51.2026C81.4287 50.9373 81.368 50.7804 81.2746 50.6654C81.1727 50.5398 80.9752 50.3956 80.5769 50.267C79.7576 50.0025 78.3509 49.8833 76.0391 49.8833C73.7466 49.8833 72.35 50.0022 71.5358 50.2664C71.1402 50.3948 70.9439 50.5391 70.8422 50.6648C70.7489 50.78 70.6881 50.9372 70.6881 51.2026C70.6881 51.3804 70.7408 51.515 70.8603 51.6414C70.9948 51.7836 71.2404 51.9413 71.6682 52.0825C72.5315 52.3673 73.9377 52.5224 76.0391 52.5225V53.1223C71.8159 53.1223 70.0882 52.5079 70.0882 51.2026C70.0883 49.7438 71.4706 49.2834 76.0391 49.2834L76.8657 49.2887C80.8134 49.3446 82.0285 49.835 82.0286 51.2026L82.0233 51.3197C81.9202 52.5099 80.2047 53.1223 76.0391 53.1223V52.5225C78.1772 52.5225 79.5928 52.358 80.4556 52.069C80.8834 51.9257 81.1276 51.7667 81.2606 51.6255C81.3789 51.4999 81.4287 51.3697 81.4287 51.2026ZM80.0321 42.2335V42.8334H73.1978V42.2335H80.0321ZM77.6659 33.9645C77.6659 32.444 77.4993 31.4751 77.2008 30.9012C77.0591 30.629 76.8963 30.462 76.7175 30.3581C76.5361 30.2528 76.2957 30.1877 75.9623 30.1877C75.6292 30.1877 75.3811 30.2531 75.1896 30.3616C75.0006 30.4689 74.8286 30.6396 74.6793 30.9123C74.3663 31.4845 74.182 32.451 74.182 33.9645C74.182 35.5373 74.3666 36.5453 74.6834 37.1438C74.8349 37.4298 75.0083 37.6072 75.1966 37.7173C75.3865 37.8284 75.6319 37.8948 75.9623 37.8948V38.4947L75.81 38.4906C74.3661 38.414 73.6736 37.2211 73.5903 34.5404L73.5821 33.9645C73.5821 30.8931 74.3114 29.5878 75.9623 29.5878L76.114 29.5913C77.6534 29.6707 78.2658 30.989 78.2658 33.9645L78.2582 34.5404C78.1804 37.3137 77.51 38.4947 75.9623 38.4947V37.8948C76.2929 37.8948 76.5306 37.828 76.7104 37.7203C76.8886 37.6135 77.0535 37.4405 77.1972 37.1549C77.4994 36.5545 77.6659 35.5439 77.6659 33.9645ZM89.0545 25.0956C89.0545 23.1616 87.6852 21.6962 85.3309 21.6064L85.1001 21.6017C81.6109 21.6017 79.0503 23.5974 77.4516 26.7419C77.2888 27.0622 76.9501 27.2587 76.5909 27.2503V27.2503L75.9623 27.2456C70.8945 27.2456 66.748 29.2036 65.8649 32.6974C65.7498 33.1196 65.7115 33.5803 65.7115 34.0793L65.715 34.2797C65.7272 34.6421 65.7726 34.9911 65.8489 35.3264C66.2905 37.2661 65.8187 40.245 65.0134 42.064C64.9416 42.2261 64.8801 42.3929 64.8286 42.5645L64.7495 42.9113C64.6794 43.2603 64.6365 43.6202 64.6365 44.0232L64.6388 44.189V44.189C64.6435 44.3443 64.5165 44.4815 64.3676 44.4369C64.2941 44.4149 64.2274 44.3844 64.1671 44.3443C64.0773 44.2847 64.0378 44.1767 64.0368 44.0689C64.0366 44.0537 64.0366 44.0385 64.0366 44.0232C64.0366 43.4242 64.1227 42.913 64.2463 42.4186L64.2498 42.4052L64.2539 42.3923C64.3638 42.0258 64.5129 41.6814 64.6999 41.3585C65.5761 39.8455 65.9189 37.5969 65.3913 35.93C65.2091 35.3544 65.1116 34.7372 65.1116 34.0793C65.1116 33.5571 65.1508 33.0411 65.2832 32.5503C65.777 30.5967 67.177 29.1126 69.0677 28.129C70.9538 27.1479 73.3578 26.6457 75.9623 26.6457V26.6457C76.4856 26.6457 76.9671 26.3516 77.2264 25.897C78.9195 22.929 81.551 21.0018 85.1001 21.0018C86.4678 21.0019 87.6114 21.4139 88.4194 22.1588C89.2303 22.9065 89.6544 23.9455 89.6544 25.0956C89.6543 26.2228 89.2526 27.1607 88.5735 27.8162C87.8988 28.4674 86.986 28.8051 86.021 28.8051C84.5411 28.805 83.2039 28.1323 82.7591 26.6498L82.7486 26.6135L82.7421 26.5766C82.7043 26.3493 82.6572 26.073 82.6572 25.7482V25.7482C82.6572 25.7043 82.611 25.6758 82.5733 25.6984C82.2126 25.9137 81.865 26.2158 81.5508 26.5946C81.2193 26.9943 81.445 27.5698 81.9205 27.7786C84.1295 28.7488 85.8017 30.3449 86.3315 32.5398L86.3772 32.7261C86.4751 33.1637 86.5061 33.619 86.5061 34.0793C86.5061 36.4656 85.2793 38.3404 83.3485 39.5932C81.4348 40.8348 78.8256 41.4749 75.9623 41.4749C74.5914 41.4749 73.2684 41.3488 72.0535 41.0636C71.8267 41.0104 71.594 40.979 71.3619 40.999C70.8071 41.047 70.4785 41.1585 70.2962 41.2727C70.1154 41.386 70.0735 41.4992 70.0735 41.643C70.0736 41.763 70.1002 41.8029 70.1169 41.8234C70.1425 41.8549 70.2202 41.9261 70.4432 41.9992C70.9117 42.1527 71.7521 42.2335 73.1978 42.2335V42.8334L72.6817 42.8293C70.2982 42.7935 69.5254 42.4919 69.4766 41.7238L69.4737 41.643C69.4737 41.0007 69.9716 40.4909 71.429 40.3913C71.6596 40.3755 71.8906 40.4083 72.1152 40.4625C73.2949 40.7472 74.5966 40.875 75.9623 40.875C81.4423 40.875 85.7689 38.4569 85.9027 34.2797L85.9062 34.0793C85.9062 33.5803 85.8679 33.1196 85.7527 32.6974C85.3607 31.0511 84.2394 29.7426 82.6551 28.8206C81.4067 28.0939 80.6041 26.5157 81.7068 25.5828C82.0936 25.2556 82.5136 25.0109 82.9501 24.8654V24.8654C83.1598 24.7815 83.3526 25.0424 83.3052 25.2632C83.272 25.4174 83.2571 25.5791 83.2571 25.7482L83.2635 25.9433C83.2761 26.1322 83.305 26.3049 83.3338 26.4776C83.6793 27.6293 84.7158 28.2051 86.021 28.2052C87.6204 28.2052 88.9678 27.1244 89.0504 25.2766L89.0545 25.0956Z"/>
</mask>
<path d="M88.3251 48.3232C88.3251 44.9015 86.0189 42.9569 80.5693 42.8387L80.0321 42.8334V42.2335C82.9968 42.2335 85.2163 42.7271 86.7082 43.7608C88.0347 44.6798 88.7232 45.981 88.8857 47.5599V47.5917C88.8857 47.5929 88.8867 47.5939 88.8879 47.5939V47.5939C88.889 47.5939 88.8899 47.5947 88.89 47.5958C88.9131 47.8322 88.925 48.0748 88.925 48.3232C88.925 50.8785 87.6716 52.8972 85.4176 54.2466C83.1951 55.577 80.0105 56.2565 76.0777 56.2565C72.9073 56.2565 70.1108 56.0763 68.0923 55.4522C67.0792 55.1389 66.2111 54.6988 65.5914 54.0685C64.9555 53.4216 64.6124 52.605 64.6124 51.625C64.6125 50.815 64.8715 50.067 65.4338 49.4287C65.5554 49.2905 65.6899 49.1592 65.8369 49.0344C66.1636 48.7572 66.1722 48.2107 65.8424 47.9371C65.7433 47.8549 65.6486 47.7706 65.5582 47.6843C65.4154 47.548 65.4719 47.3131 65.6474 47.2228V47.2228C65.7643 47.1626 65.9031 47.1851 65.9988 47.2752C66.0852 47.3564 66.1763 47.4361 66.2723 47.5139C66.8166 47.9556 66.7882 49.022 66.2501 49.4712C65.5342 50.0687 65.2124 50.7956 65.2123 51.625L65.2158 51.7779C65.35 54.8488 69.561 55.6091 75.489 55.6543L76.0777 55.6566C83.712 55.6566 88.1839 53.0521 88.3216 48.5394L88.3251 48.3232ZM81.4287 51.2026C81.4287 50.9373 81.368 50.7804 81.2746 50.6654C81.1727 50.5398 80.9752 50.3956 80.5769 50.267C79.7576 50.0025 78.3509 49.8833 76.0391 49.8833C73.7466 49.8833 72.35 50.0022 71.5358 50.2664C71.1402 50.3948 70.9439 50.5391 70.8422 50.6648C70.7489 50.78 70.6881 50.9372 70.6881 51.2026C70.6881 51.3804 70.7408 51.515 70.8603 51.6414C70.9948 51.7836 71.2404 51.9413 71.6682 52.0825C72.5315 52.3673 73.9377 52.5224 76.0391 52.5225V53.1223C71.8159 53.1223 70.0882 52.5079 70.0882 51.2026C70.0883 49.7438 71.4706 49.2834 76.0391 49.2834L76.8657 49.2887C80.8134 49.3446 82.0285 49.835 82.0286 51.2026L82.0233 51.3197C81.9202 52.5099 80.2047 53.1223 76.0391 53.1223V52.5225C78.1772 52.5225 79.5928 52.358 80.4556 52.069C80.8834 51.9257 81.1276 51.7667 81.2606 51.6255C81.3789 51.4999 81.4287 51.3697 81.4287 51.2026ZM80.0321 42.2335V42.8334H73.1978V42.2335H80.0321ZM77.6659 33.9645C77.6659 32.444 77.4993 31.4751 77.2008 30.9012C77.0591 30.629 76.8963 30.462 76.7175 30.3581C76.5361 30.2528 76.2957 30.1877 75.9623 30.1877C75.6292 30.1877 75.3811 30.2531 75.1896 30.3616C75.0006 30.4689 74.8286 30.6396 74.6793 30.9123C74.3663 31.4845 74.182 32.451 74.182 33.9645C74.182 35.5373 74.3666 36.5453 74.6834 37.1438C74.8349 37.4298 75.0083 37.6072 75.1966 37.7173C75.3865 37.8284 75.6319 37.8948 75.9623 37.8948V38.4947L75.81 38.4906C74.3661 38.414 73.6736 37.2211 73.5903 34.5404L73.5821 33.9645C73.5821 30.8931 74.3114 29.5878 75.9623 29.5878L76.114 29.5913C77.6534 29.6707 78.2658 30.989 78.2658 33.9645L78.2582 34.5404C78.1804 37.3137 77.51 38.4947 75.9623 38.4947V37.8948C76.2929 37.8948 76.5306 37.828 76.7104 37.7203C76.8886 37.6135 77.0535 37.4405 77.1972 37.1549C77.4994 36.5545 77.6659 35.5439 77.6659 33.9645ZM89.0545 25.0956C89.0545 23.1616 87.6852 21.6962 85.3309 21.6064L85.1001 21.6017C81.6109 21.6017 79.0503 23.5974 77.4516 26.7419C77.2888 27.0622 76.9501 27.2587 76.5909 27.2503V27.2503L75.9623 27.2456C70.8945 27.2456 66.748 29.2036 65.8649 32.6974C65.7498 33.1196 65.7115 33.5803 65.7115 34.0793L65.715 34.2797C65.7272 34.6421 65.7726 34.9911 65.8489 35.3264C66.2905 37.2661 65.8187 40.245 65.0134 42.064C64.9416 42.2261 64.8801 42.3929 64.8286 42.5645L64.7495 42.9113C64.6794 43.2603 64.6365 43.6202 64.6365 44.0232L64.6388 44.189V44.189C64.6435 44.3443 64.5165 44.4815 64.3676 44.4369C64.2941 44.4149 64.2274 44.3844 64.1671 44.3443C64.0773 44.2847 64.0378 44.1767 64.0368 44.0689C64.0366 44.0537 64.0366 44.0385 64.0366 44.0232C64.0366 43.4242 64.1227 42.913 64.2463 42.4186L64.2498 42.4052L64.2539 42.3923C64.3638 42.0258 64.5129 41.6814 64.6999 41.3585C65.5761 39.8455 65.9189 37.5969 65.3913 35.93C65.2091 35.3544 65.1116 34.7372 65.1116 34.0793C65.1116 33.5571 65.1508 33.0411 65.2832 32.5503C65.777 30.5967 67.177 29.1126 69.0677 28.129C70.9538 27.1479 73.3578 26.6457 75.9623 26.6457V26.6457C76.4856 26.6457 76.9671 26.3516 77.2264 25.897C78.9195 22.929 81.551 21.0018 85.1001 21.0018C86.4678 21.0019 87.6114 21.4139 88.4194 22.1588C89.2303 22.9065 89.6544 23.9455 89.6544 25.0956C89.6543 26.2228 89.2526 27.1607 88.5735 27.8162C87.8988 28.4674 86.986 28.8051 86.021 28.8051C84.5411 28.805 83.2039 28.1323 82.7591 26.6498L82.7486 26.6135L82.7421 26.5766C82.7043 26.3493 82.6572 26.073 82.6572 25.7482V25.7482C82.6572 25.7043 82.611 25.6758 82.5733 25.6984C82.2126 25.9137 81.865 26.2158 81.5508 26.5946C81.2193 26.9943 81.445 27.5698 81.9205 27.7786C84.1295 28.7488 85.8017 30.3449 86.3315 32.5398L86.3772 32.7261C86.4751 33.1637 86.5061 33.619 86.5061 34.0793C86.5061 36.4656 85.2793 38.3404 83.3485 39.5932C81.4348 40.8348 78.8256 41.4749 75.9623 41.4749C74.5914 41.4749 73.2684 41.3488 72.0535 41.0636C71.8267 41.0104 71.594 40.979 71.3619 40.999C70.8071 41.047 70.4785 41.1585 70.2962 41.2727C70.1154 41.386 70.0735 41.4992 70.0735 41.643C70.0736 41.763 70.1002 41.8029 70.1169 41.8234C70.1425 41.8549 70.2202 41.9261 70.4432 41.9992C70.9117 42.1527 71.7521 42.2335 73.1978 42.2335V42.8334L72.6817 42.8293C70.2982 42.7935 69.5254 42.4919 69.4766 41.7238L69.4737 41.643C69.4737 41.0007 69.9716 40.4909 71.429 40.3913C71.6596 40.3755 71.8906 40.4083 72.1152 40.4625C73.2949 40.7472 74.5966 40.875 75.9623 40.875C81.4423 40.875 85.7689 38.4569 85.9027 34.2797L85.9062 34.0793C85.9062 33.5803 85.8679 33.1196 85.7527 32.6974C85.3607 31.0511 84.2394 29.7426 82.6551 28.8206C81.4067 28.0939 80.6041 26.5157 81.7068 25.5828C82.0936 25.2556 82.5136 25.0109 82.9501 24.8654V24.8654C83.1598 24.7815 83.3526 25.0424 83.3052 25.2632C83.272 25.4174 83.2571 25.5791 83.2571 25.7482L83.2635 25.9433C83.2761 26.1322 83.305 26.3049 83.3338 26.4776C83.6793 27.6293 84.7158 28.2051 86.021 28.2052C87.6204 28.2052 88.9678 27.1244 89.0504 25.2766L89.0545 25.0956Z" fill="#B36843"/>
<path d="M88.3251 48.3232L89.5247 48.3427L89.5249 48.333L89.5249 48.3232L88.3251 48.3232ZM80.5693 42.8387L80.5953 41.6392L80.5882 41.639L80.5811 41.6389L80.5693 42.8387ZM80.0321 42.2335L80.0321 41.0337H80.0321V42.2335ZM86.7082 43.7608L87.3915 42.7746L87.3915 42.7746L86.7082 43.7608ZM88.8857 47.5599H90.0855V47.4983L90.0792 47.437L88.8857 47.5599ZM88.925 48.3232L90.1248 48.3232L90.1248 48.3232L88.925 48.3232ZM85.4176 54.2466L86.0339 55.276L86.0339 55.276L85.4176 54.2466ZM76.0777 56.2565L76.0777 57.4563L76.0777 57.4563L76.0777 56.2565ZM68.0923 55.4522L67.7378 56.5984L67.7378 56.5984L68.0923 55.4522ZM65.5914 54.0685L64.7358 54.9096L64.7358 54.9096L65.5914 54.0685ZM64.6124 51.625L63.4127 51.6249V51.625H64.6124ZM65.4338 49.4287L64.5334 48.6357L64.5334 48.6357L65.4338 49.4287ZM65.2123 51.625L64.0125 51.6249L64.0125 51.6387L64.0129 51.6525L65.2123 51.625ZM65.2158 51.7779L64.0164 51.8054L64.0167 51.8178L64.0172 51.8302L65.2158 51.7779ZM75.489 55.6543L75.4798 56.8541L75.4842 56.8541L75.489 55.6543ZM76.0777 55.6566L76.073 56.8564L76.0777 56.8564L76.0777 55.6566ZM88.3216 48.5394L89.5208 48.576L89.5211 48.5674L89.5212 48.5589L88.3216 48.5394ZM81.4287 51.2026L82.6285 51.2026L82.6285 51.2024L81.4287 51.2026ZM81.2746 50.6654L82.2062 49.9093L82.2061 49.9092L81.2746 50.6654ZM80.5769 50.267L80.9456 49.1253L80.9456 49.1253L80.5769 50.267ZM76.0391 49.8833L76.0391 48.6835L76.0391 48.6835L76.0391 49.8833ZM71.5358 50.2664L71.1654 49.1252L71.1653 49.1253L71.5358 50.2664ZM70.8422 50.6648L69.9096 49.9099L69.9095 49.9101L70.8422 50.6648ZM70.6881 51.2026L69.4883 51.2024V51.2026H70.6881ZM70.8603 51.6414L69.9884 52.4655L69.9886 52.4657L70.8603 51.6414ZM71.6682 52.0825L71.2922 53.2218L71.2923 53.2219L71.6682 52.0825ZM76.0391 53.1223L76.0391 54.3221H76.0391V53.1223ZM70.0882 51.2026L68.8884 51.2025V51.2026H70.0882ZM76.0391 49.2834L76.0467 48.0836L76.0391 48.0836L76.0391 49.2834ZM76.8657 49.2887L76.8827 48.089L76.8733 48.0889L76.8657 49.2887ZM82.0286 51.2026L83.2272 51.2565L83.2284 51.2295L83.2284 51.2025L82.0286 51.2026ZM82.0233 51.3197L83.2186 51.4233L83.2208 51.3985L83.2219 51.3737L82.0233 51.3197ZM80.4556 52.069L80.8367 53.2067L80.8367 53.2067L80.4556 52.069ZM81.2606 51.6255L82.1337 52.4484L82.1339 52.4483L81.2606 51.6255ZM73.1978 42.8334L73.1882 44.0332H73.1978V42.8334ZM77.6659 33.9645L78.8657 33.9645V33.9645H77.6659ZM77.2008 30.9012L78.2651 30.3475L78.2651 30.3474L77.2008 30.9012ZM76.7175 30.3581L77.32 29.3206L77.3199 29.3206L76.7175 30.3581ZM75.9623 30.1877L75.9623 28.9879L75.9623 28.9879L75.9623 30.1877ZM75.1896 30.3616L74.5979 29.3179L74.5977 29.318L75.1896 30.3616ZM74.6793 30.9123L73.6269 30.3363L73.6268 30.3364L74.6793 30.9123ZM74.182 33.9645L72.9822 33.9645L72.9822 33.9645L74.182 33.9645ZM74.6834 37.1438L73.6231 37.7052L73.6231 37.7052L74.6834 37.1438ZM75.1966 37.7173L74.5909 38.753L74.5909 38.753L75.1966 37.7173ZM75.9623 38.4947L75.93 39.6941L75.9462 39.6945H75.9623V38.4947ZM75.81 38.4906L75.7464 39.6887L75.762 39.6896L75.7777 39.69L75.81 38.4906ZM73.5903 34.5404L72.3906 34.5575L72.3908 34.5676L72.3911 34.5776L73.5903 34.5404ZM73.5821 33.9645H72.3823V33.9731L72.3824 33.9816L73.5821 33.9645ZM75.9623 29.5878L75.9901 28.3883L75.9762 28.388L75.9623 28.388L75.9623 29.5878ZM76.114 29.5913L76.1758 28.3931L76.1589 28.3922L76.1418 28.3918L76.114 29.5913ZM78.2658 33.9645L79.4655 33.9804L79.4656 33.9724V33.9645H78.2658ZM78.2582 34.5404L79.4575 34.574L79.4577 34.5651L79.4579 34.5562L78.2582 34.5404ZM76.7104 37.7203L77.3271 38.7494L77.3272 38.7494L76.7104 37.7203ZM77.1972 37.1549L78.2689 37.6944L78.269 37.6943L77.1972 37.1549ZM89.0545 25.0956L90.2539 25.1228L90.2542 25.1092V25.0956H89.0545ZM85.3309 21.6064L85.3766 20.4075L85.366 20.4071L85.3553 20.4069L85.3309 21.6064ZM85.1001 21.6017L85.1245 20.4022L85.1123 20.4019H85.1001V21.6017ZM75.9623 27.2456L75.9713 26.0458L75.9623 26.0458L75.9623 27.2456ZM65.8649 32.6974L67.0224 33.013L67.0254 33.0022L67.0281 32.9914L65.8649 32.6974ZM65.7115 34.0793L64.5117 34.0793L64.5117 34.0898L64.5119 34.1004L65.7115 34.0793ZM65.715 34.2797L64.5154 34.3007L64.5155 34.3104L64.5159 34.3201L65.715 34.2797ZM64.8286 42.5645L63.6794 42.2197L63.6678 42.2584L63.6589 42.2978L64.8286 42.5645ZM64.7495 42.9113L63.5798 42.6446L63.5763 42.6597L63.5733 42.6749L64.7495 42.9113ZM64.6365 44.0232L63.4367 44.0232L63.4367 44.0317L63.4368 44.0402L64.6365 44.0232ZM64.0366 44.0232L62.8368 44.0232V44.0232H64.0366ZM64.2463 42.4186L63.0853 42.1158L63.0823 42.1276L64.2463 42.4186ZM64.2498 42.4052L63.1065 42.0414L63.0969 42.0716L63.0889 42.1023L64.2498 42.4052ZM64.2539 42.3923L65.3972 42.756L65.4002 42.7466L65.4031 42.737L64.2539 42.3923ZM65.1116 34.0793L63.9118 34.0793V34.0793H65.1116ZM65.2832 32.5503L66.4416 32.8628L66.4441 32.8536L66.4464 32.8443L65.2832 32.5503ZM69.0677 28.129L68.514 27.0647L68.514 27.0647L69.0677 28.129ZM85.1001 21.0018L85.1001 19.802H85.1001V21.0018ZM88.4194 22.1588L89.2327 21.2768L89.2326 21.2767L88.4194 22.1588ZM89.6544 25.0956L90.8541 25.0956V25.0956H89.6544ZM88.5735 27.8162L89.4067 28.6795L89.4067 28.6794L88.5735 27.8162ZM86.021 28.8051L86.021 30.0049H86.021V28.8051ZM82.7591 26.6498L81.6069 26.9843L81.6099 26.9946L82.7591 26.6498ZM82.7486 26.6135L81.5667 26.8199L81.578 26.8848L81.5964 26.948L82.7486 26.6135ZM82.7421 26.5766L81.5586 26.7739L81.5602 26.783L82.7421 26.5766ZM86.3315 32.5398L85.1652 32.8213L85.1663 32.8256L86.3315 32.5398ZM86.3772 32.7261L87.5481 32.4641L87.5454 32.4522L87.5425 32.4402L86.3772 32.7261ZM86.5061 34.0793L87.7059 34.0793L87.7059 34.0793L86.5061 34.0793ZM83.3485 39.5932L84.0015 40.5997L84.0015 40.5997L83.3485 39.5932ZM75.9623 41.4749L75.9623 42.6746H75.9623V41.4749ZM70.2962 41.2727L69.6591 40.2561L69.659 40.2561L70.2962 41.2727ZM70.0735 41.643L68.8738 41.643L68.8738 41.6431L70.0735 41.643ZM70.1169 41.8234L69.1854 42.5796L69.1864 42.5808L70.1169 41.8234ZM70.4432 41.9992L70.0696 43.1393L70.0697 43.1393L70.4432 41.9992ZM72.6817 42.8293L72.6637 44.029L72.6721 44.029L72.6817 42.8293ZM69.4766 41.7238L68.2776 41.7673L68.2782 41.7836L68.2792 41.7999L69.4766 41.7238ZM69.4737 41.643H68.2739V41.6647L68.2747 41.6864L69.4737 41.643ZM75.9623 40.875L75.9623 42.0747H75.9623V40.875ZM85.9027 34.2797L87.1019 34.3181L87.1021 34.3094L87.1023 34.3007L85.9027 34.2797ZM85.9062 34.0793L87.1058 34.1004L87.106 34.0898L87.106 34.0793L85.9062 34.0793ZM85.7527 32.6974L84.5856 32.9752L84.5901 32.9942L84.5952 33.013L85.7527 32.6974ZM83.2571 25.7482L82.0573 25.7482L82.0573 25.768L82.058 25.7878L83.2571 25.7482ZM83.2635 25.9433L82.0644 25.9829L82.0651 26.0031L82.0664 26.0232L83.2635 25.9433ZM83.3338 26.4776L82.1504 26.6748L82.1628 26.7497L82.1846 26.8223L83.3338 26.4776ZM86.021 28.2052L86.021 29.405H86.021V28.2052ZM89.0504 25.2766L90.2489 25.3302L90.2495 25.317L90.2498 25.3038L89.0504 25.2766ZM71.429 40.3913L71.3472 39.1943L71.429 40.3913ZM72.0535 41.0636L71.7793 42.2317L72.0535 41.0636ZM71.3619 40.999L71.2585 39.8037L71.3619 40.999ZM81.5508 26.5946L80.6273 25.8287L81.5508 26.5946ZM77.2264 25.897L76.1843 25.3025L77.2264 25.897ZM64.1671 44.3443L64.831 43.345L64.1671 44.3443ZM77.4516 26.7419L78.5211 27.2856L77.4516 26.7419ZM65.8369 49.0344L66.6133 49.9491L65.8369 49.0344ZM65.8424 47.9371L66.6085 47.0137L65.8424 47.9371ZM83.3052 25.2632L84.4782 25.5153L83.3052 25.2632ZM65.9988 47.2752L65.1767 48.1489L65.9988 47.2752ZM66.2723 47.5139L65.5163 48.4456L66.2723 47.5139ZM82.5733 25.6984L81.9582 24.6682L82.5733 25.6984ZM88.89 47.5958L90.0841 47.4792L88.89 47.5958ZM65.5582 47.6843L66.3865 46.8163L65.5582 47.6843ZM88.3251 48.3232L89.5249 48.3232C89.5249 46.3101 88.8257 44.5747 87.2034 43.3769C85.6548 42.2335 83.4221 41.7005 80.5953 41.6392L80.5693 42.8387L80.5433 44.0382C83.1661 44.0951 84.8112 44.5934 85.7781 45.3073C86.6714 45.9669 87.1253 46.9146 87.1253 48.3232L88.3251 48.3232ZM80.5693 42.8387L80.5811 41.6389L80.0439 41.6337L80.0321 42.8334L80.0203 44.0331L80.5575 44.0384L80.5693 42.8387ZM80.0321 42.8334H81.2319V42.2335H80.0321H78.8323V42.8334H80.0321ZM80.0321 42.2335L80.0321 43.4333C82.9028 43.4333 84.8293 43.9186 86.0249 44.747L86.7082 43.7608L87.3915 42.7746C85.6033 41.5357 83.0909 41.0337 80.0321 41.0337L80.0321 42.2335ZM86.7082 43.7608L86.0249 44.747C87.0327 45.4452 87.5616 46.4133 87.6923 47.6828L88.8857 47.5599L90.0792 47.437C89.8848 45.5487 89.0367 43.9144 87.3915 42.7746L86.7082 43.7608ZM88.8857 47.5599H87.686V47.5917H88.8857H90.0855V47.5599H88.8857ZM88.89 47.5958L87.6959 47.7124C87.7152 47.9094 87.7252 48.113 87.7252 48.3232L88.925 48.3232L90.1248 48.3232C90.1248 48.0366 90.1111 47.7551 90.0841 47.4792L88.89 47.5958ZM88.925 48.3232H87.7252C87.7252 50.4129 86.7326 52.061 84.8014 53.2171L85.4176 54.2466L86.0339 55.276C88.6107 53.7334 90.1248 51.3442 90.1248 48.3232H88.925ZM85.4176 54.2466L84.8014 53.2171C82.8391 54.3918 79.9001 55.0567 76.0777 55.0568L76.0777 56.2565L76.0777 57.4563C80.1208 57.4563 83.551 56.7623 86.0339 55.276L85.4176 54.2466ZM76.0777 56.2565V55.0568C72.9137 55.0568 70.2772 54.872 68.4467 54.306L68.0923 55.4522L67.7378 56.5984C69.9444 57.2807 72.9009 57.4563 76.0777 57.4563V56.2565ZM68.0923 55.4522L68.4467 54.306C67.5354 54.0242 66.8747 53.6624 66.4469 53.2273L65.5914 54.0685L64.7358 54.9096C65.5475 55.7352 66.623 56.2537 67.7378 56.5984L68.0923 55.4522ZM65.5914 54.0685L66.4469 53.2274C66.0355 52.8089 65.8122 52.2959 65.8122 51.625H64.6124H63.4127C63.4127 52.9141 63.8754 54.0344 64.7358 54.9096L65.5914 54.0685ZM64.6124 51.625L65.8122 51.625C65.8122 51.0908 65.9753 50.6291 66.3341 50.2217L65.4338 49.4287L64.5334 48.6357C63.7678 49.505 63.4127 50.5392 63.4127 51.6249L64.6124 51.625ZM65.4338 49.4287L66.3341 50.2217C66.4152 50.1296 66.5079 50.0386 66.6133 49.9491L65.8369 49.0344L65.0606 48.1197C64.8719 48.2798 64.6956 48.4515 64.5334 48.6357L65.4338 49.4287ZM65.8424 47.9371L66.6085 47.0137C66.5304 46.9489 66.4564 46.8831 66.3865 46.8163L65.5582 47.6843L64.7299 48.5523C64.8408 48.6581 64.9563 48.7608 65.0764 48.8605L65.8424 47.9371ZM65.9988 47.2752L65.1767 48.1489C65.2848 48.2507 65.398 48.3496 65.5163 48.4456L66.2723 47.5139L67.0283 46.5823C66.9546 46.5225 66.8857 46.4622 66.821 46.4014L65.9988 47.2752ZM66.2501 49.4712L65.4813 48.5501C64.4969 49.3717 64.0126 50.434 64.0125 51.6249L65.2123 51.625L66.4121 51.625C66.4121 51.1572 66.5716 50.7656 67.0189 50.3923L66.2501 49.4712ZM65.2123 51.625L64.0129 51.6525L64.0164 51.8054L65.2158 51.7779L66.4153 51.7503L66.4118 51.5974L65.2123 51.625ZM65.2158 51.7779L64.0172 51.8302C64.064 52.9015 64.4799 53.8089 65.1977 54.5232C65.8876 55.2098 66.8073 55.6712 67.8139 55.9934C69.8111 56.6328 72.5042 56.8314 75.4798 56.8541L75.489 55.6543L75.4981 54.4546C72.5458 54.4321 70.1694 54.2279 68.5455 53.7081C67.7416 53.4507 67.2129 53.1434 66.8903 52.8223C66.5955 52.529 66.4348 52.1897 66.4145 51.7255L65.2158 51.7779ZM75.489 55.6543L75.4842 56.8541L76.073 56.8564L76.0777 55.6566L76.0825 54.4569L75.4937 54.4545L75.489 55.6543ZM76.0777 55.6566L76.0777 56.8564C80.0045 56.8564 83.2696 56.1909 85.614 54.8274C88.0155 53.4307 89.4378 51.297 89.5208 48.576L88.3216 48.5394L87.1224 48.5028C87.0677 50.2945 86.1851 51.7194 84.4077 52.7531C82.5731 53.8201 79.7851 54.4568 76.0777 54.4569L76.0777 55.6566ZM88.3216 48.5394L89.5212 48.5589L89.5247 48.3427L88.3251 48.3232L87.1255 48.3037L87.122 48.5199L88.3216 48.5394ZM81.4287 51.2026L82.6285 51.2024C82.6284 50.7352 82.5142 50.2888 82.2062 49.9093L81.2746 50.6654L80.3431 51.4214C80.3216 51.3951 80.3002 51.3638 80.2812 51.3283C80.2622 51.293 80.2491 51.26 80.2405 51.2323C80.2237 51.1781 80.2289 51.1595 80.2289 51.2027L81.4287 51.2026ZM81.2746 50.6654L82.2061 49.9092C81.9047 49.5379 81.468 49.294 80.9456 49.1253L80.5769 50.267L80.2082 51.4087C80.3404 51.4514 80.4001 51.4843 80.4151 51.4934C80.4274 51.5008 80.3917 51.4813 80.3431 51.4215L81.2746 50.6654ZM80.5769 50.267L80.9456 49.1253C79.9218 48.7947 78.3335 48.6835 76.0391 48.6835V49.8833V51.0831C78.3684 51.0831 79.5933 51.2102 80.2083 51.4087L80.5769 50.267ZM76.0391 49.8833L76.0391 48.6835C73.764 48.6835 72.1848 48.7944 71.1654 49.1252L71.5358 50.2664L71.9061 51.4076C72.5151 51.21 73.7293 51.0831 76.0391 51.0831L76.0391 49.8833ZM71.5358 50.2664L71.1653 49.1253C70.6434 49.2947 70.2093 49.5397 69.9096 49.9099L70.8422 50.6648L71.7747 51.4197C71.7271 51.4785 71.6919 51.498 71.7034 51.491C71.7176 51.4823 71.7761 51.4498 71.9062 51.4076L71.5358 50.2664ZM70.8422 50.6648L69.9095 49.9101C69.6028 50.2891 69.4884 50.7349 69.4883 51.2024L70.6881 51.2026L71.8879 51.2027C71.8879 51.1596 71.893 51.178 71.8764 51.2318C71.8679 51.2593 71.8549 51.292 71.8361 51.327C71.8173 51.3622 71.796 51.3933 71.7748 51.4195L70.8422 50.6648ZM70.6881 51.2026H69.4883C69.4883 51.6788 69.6529 52.1105 69.9884 52.4655L70.8603 51.6414L71.7322 50.8172C71.761 50.8476 71.8098 50.91 71.8463 51.003C71.8824 51.095 71.8879 51.1697 71.8879 51.2026H70.6881ZM70.8603 51.6414L69.9886 52.4657C70.3099 52.8055 70.7601 53.0462 71.2922 53.2218L71.6682 52.0825L72.0442 50.9431C71.8899 50.8922 71.7969 50.8475 71.7472 50.8193C71.697 50.7908 71.7021 50.7854 71.732 50.817L70.8603 51.6414ZM71.6682 52.0825L71.2923 53.2219C72.3487 53.5704 73.918 53.7222 76.0391 53.7222L76.0391 52.5225L76.0391 51.3227C73.9574 51.3227 72.7143 51.1643 72.0441 50.9431L71.6682 52.0825ZM76.0391 52.5225H74.8393V53.1223H76.0391H77.2388V52.5225H76.0391ZM76.0391 53.1223L76.0391 51.9226C73.9475 51.9226 72.6228 51.7657 71.8559 51.5126C71.4802 51.3886 71.337 51.2724 71.296 51.2291C71.285 51.2174 71.288 51.2318 71.288 51.2026H70.0882H68.8884C68.8884 51.826 69.1073 52.4067 69.5522 52.8774C69.9672 53.3164 70.5199 53.5985 71.1039 53.7913C72.2567 54.1718 73.9074 54.3221 76.0391 54.3221L76.0391 53.1223ZM70.0882 51.2026L71.288 51.2027C71.288 51.114 71.2986 51.0694 71.3035 51.0535C71.307 51.0419 71.3082 51.0422 71.3082 51.0422C71.3106 51.0392 71.3877 50.9453 71.7208 50.8372C72.4325 50.6062 73.7383 50.4832 76.0391 50.4832L76.0391 49.2834L76.0391 48.0836C73.7713 48.0836 72.1017 48.1908 70.9802 48.5548C70.3967 48.7441 69.8426 49.0388 69.4431 49.5324C69.0267 50.0468 68.8885 50.6392 68.8884 51.2025L70.0882 51.2026ZM76.0391 49.2834L76.0314 50.4832L76.858 50.4884L76.8657 49.2887L76.8733 48.0889L76.0467 48.0836L76.0391 49.2834ZM76.8657 49.2887L76.8487 50.4883C78.8324 50.5164 79.9268 50.6587 80.5043 50.8764C80.6334 50.9251 80.7119 50.969 80.757 51C80.7789 51.0151 80.7923 51.0266 80.7997 51.0337C80.807 51.0405 80.8097 51.0442 80.8099 51.0446C80.8101 51.0448 80.8099 51.0445 80.81 51.0446C80.8101 51.0449 80.8119 51.0486 80.8144 51.0573C80.8195 51.0753 80.8288 51.1196 80.8288 51.2027L82.0286 51.2026L83.2284 51.2025C83.2283 50.6774 83.1086 50.1208 82.7441 49.6244C82.3878 49.1392 81.8867 48.8332 81.3507 48.6311C80.3338 48.2477 78.8467 48.1168 76.8827 48.089L76.8657 49.2887ZM82.0286 51.2026L80.83 51.1486L80.8248 51.2658L82.0233 51.3197L83.2219 51.3737L83.2272 51.2565L82.0286 51.2026ZM82.0233 51.3197L80.828 51.2162C80.8274 51.2234 80.8275 51.2161 80.833 51.2051C80.838 51.1949 80.8371 51.2029 80.8112 51.2271C80.7496 51.2847 80.5803 51.4019 80.1956 51.5226C79.4146 51.7675 78.0958 51.9226 76.0391 51.9226V53.1223V54.3221C78.148 54.3221 79.7697 54.171 80.9137 53.8121C82.0518 53.4552 83.104 52.746 83.2186 51.4233L82.0233 51.3197ZM76.0391 53.1223H77.2388V52.5225H76.0391H74.8393V53.1223H76.0391ZM76.0391 52.5225V53.7222C78.2003 53.7222 79.7797 53.5607 80.8367 53.2067L80.4556 52.069L80.0746 50.9314C79.4059 51.1554 78.1541 51.3227 76.0391 51.3227V52.5225ZM80.4556 52.069L80.8367 53.2067C81.37 53.028 81.8162 52.7853 82.1337 52.4484L81.2606 51.6255L80.3874 50.8027C80.4167 50.7716 80.4213 50.7773 80.3711 50.8061C80.3215 50.8346 80.2286 50.8798 80.0745 50.9314L80.4556 52.069ZM81.2606 51.6255L82.1339 52.4483C82.4649 52.0969 82.6285 51.6712 82.6285 51.2026H81.4287H80.2289C80.2289 51.1633 80.2355 51.0844 80.2727 50.9899C80.3101 50.8951 80.3594 50.8324 80.3873 50.8028L81.2606 51.6255ZM80.0321 42.2335H78.8323V42.8334H80.0321H81.2319V42.2335H80.0321ZM80.0321 42.8334V41.6336H73.1978V42.8334V44.0332H80.0321V42.8334ZM73.1978 42.8334H74.3976V42.2335H73.1978H71.998V42.8334H73.1978ZM73.1978 42.2335V43.4333H80.0321V42.2335V41.0337H73.1978V42.2335ZM77.6659 33.9645H78.8657C78.8657 32.4142 78.7057 31.1943 78.2651 30.3475L77.2008 30.9012L76.1364 31.4549C76.293 31.7559 76.4661 32.4739 76.4661 33.9645H77.6659ZM77.2008 30.9012L78.2651 30.3474C78.0376 29.9102 77.7285 29.5579 77.32 29.3206L76.7175 30.3581L76.1149 31.3956C76.1069 31.391 76.0995 31.3859 76.0935 31.381C76.0876 31.3762 76.0851 31.3733 76.0857 31.374C76.0869 31.3754 76.1061 31.3967 76.1364 31.4549L77.2008 30.9012ZM76.7175 30.3581L77.3199 29.3206C76.9142 29.085 76.4537 28.9879 75.9623 28.9879V30.1877V31.3874C76.0515 31.3874 76.1006 31.3962 76.1205 31.4009C76.1384 31.4052 76.1328 31.4061 76.115 31.3957L76.7175 30.3581ZM75.9623 30.1877L75.9623 28.9879C75.4696 28.9879 75.0073 29.0859 74.5979 29.3179L75.1896 30.3616L75.7813 31.4054C75.7715 31.4109 75.7735 31.4075 75.7968 31.402C75.8219 31.3962 75.8739 31.3874 75.9623 31.3874L75.9623 30.1877ZM75.1896 30.3616L74.5977 29.318C74.1863 29.5514 73.8664 29.8987 73.6269 30.3363L74.6793 30.9123L75.7318 31.4883C75.7638 31.4299 75.7856 31.4052 75.7913 31.3993C75.7956 31.3948 75.7917 31.3995 75.7815 31.4053L75.1896 30.3616ZM74.6793 30.9123L73.6268 30.3364C73.1624 31.185 72.9822 32.4074 72.9822 33.9645H74.182H75.3818C75.3818 32.4946 75.5701 31.7839 75.7318 31.4883L74.6793 30.9123ZM74.182 33.9645L72.9822 33.9645C72.9822 35.5777 73.1624 36.835 73.6231 37.7052L74.6834 37.1438L75.7438 36.5824C75.5707 36.2556 75.3818 35.4968 75.3818 33.9645L74.182 33.9645ZM74.6834 37.1438L73.6231 37.7052C73.8599 38.1525 74.1775 38.5112 74.5909 38.753L75.1966 37.7173L75.8023 36.6817C75.8148 36.6889 75.8181 36.694 75.8116 36.6869C75.8037 36.6782 75.7789 36.6487 75.7438 36.5824L74.6834 37.1438ZM75.1966 37.7173L74.5909 38.753C75.0024 38.9936 75.4676 39.0946 75.9623 39.0946L75.9623 37.8948L75.9623 36.6951C75.8771 36.6951 75.8291 36.6865 75.8082 36.6814C75.7892 36.6768 75.7905 36.6748 75.8023 36.6817L75.1966 37.7173ZM75.9623 37.8948H74.7625V38.4947H75.9623H77.1621V37.8948H75.9623ZM75.9623 38.4947L75.9946 37.2954L75.8423 37.2913L75.81 38.4906L75.7777 39.69L75.93 39.6941L75.9623 38.4947ZM75.81 38.4906L75.8736 37.2925C75.5498 37.2753 75.3909 37.178 75.2339 36.9009C75.0165 36.5168 74.8294 35.7877 74.7895 34.5031L73.5903 34.5404L72.3911 34.5776C72.4345 35.9737 72.6353 37.1815 73.1459 38.0832C73.717 39.0918 74.6263 39.6292 75.7464 39.6887L75.81 38.4906ZM73.5903 34.5404L74.7899 34.5233L74.7817 33.9474L73.5821 33.9645L72.3824 33.9816L72.3906 34.5575L73.5903 34.5404ZM73.5821 33.9645H74.7819C74.7819 32.473 74.9681 31.6343 75.2056 31.2003C75.3099 31.0098 75.4079 30.9275 75.4856 30.8835C75.5679 30.8368 75.7088 30.7875 75.9623 30.7875L75.9623 29.5878L75.9623 28.388C75.3904 28.388 74.821 28.5019 74.3023 28.796C73.7789 29.0927 73.3851 29.5286 73.1006 30.0484C72.5607 31.0349 72.3823 32.3846 72.3823 33.9645H73.5821ZM75.9623 29.5878L75.9345 30.7872L76.0863 30.7907L76.114 29.5913L76.1418 28.3918L75.9901 28.3883L75.9623 29.5878ZM76.114 29.5913L76.0522 30.7895C76.2667 30.8005 76.3758 30.8494 76.4375 30.8902C76.4992 30.931 76.5901 31.0145 76.6879 31.216C76.9081 31.6693 77.066 32.5104 77.066 33.9645H78.2658H79.4656C79.4656 32.443 79.3173 31.1372 78.8464 30.1677C78.5987 29.6577 78.2479 29.2108 77.7618 28.8891C77.2757 28.5675 76.731 28.4217 76.1758 28.3931L76.114 29.5913ZM78.2658 33.9645L77.0661 33.9486L77.0585 34.5245L78.2582 34.5404L79.4579 34.5562L79.4655 33.9804L78.2658 33.9645ZM78.2582 34.5404L77.0589 34.5068C77.0211 35.8527 76.8366 36.5868 76.6226 36.9575C76.5308 37.1163 76.4493 37.1804 76.3874 37.2142C76.32 37.251 76.1961 37.295 75.9623 37.295V38.4947V39.6945C76.5024 39.6945 77.0426 39.5908 77.5387 39.3195C78.0403 39.0452 78.4214 38.6407 78.7004 38.1576C79.2279 37.2444 79.4175 36.0013 79.4575 34.574L78.2582 34.5404ZM75.9623 38.4947H77.1621V37.8948H75.9623H74.7625V38.4947H75.9623ZM75.9623 37.8948V39.0946C76.4581 39.0946 76.9209 38.9928 77.3271 38.7494L76.7104 37.7203L76.0938 36.6911C76.1126 36.6798 76.1209 36.6794 76.1075 36.6826C76.092 36.6864 76.0473 36.6951 75.9623 36.6951V37.8948ZM76.7104 37.7203L77.3272 38.7494C77.735 38.505 78.0429 38.1435 78.2689 37.6944L77.1972 37.1549L76.1256 36.6155C76.0927 36.6807 76.0708 36.7066 76.0673 36.7107C76.0655 36.7127 76.0672 36.7105 76.0726 36.706C76.0781 36.7014 76.0853 36.6962 76.0937 36.6911L76.7104 37.7203ZM77.1972 37.1549L78.269 37.6943C78.706 36.826 78.8657 35.5709 78.8657 33.9645L77.6659 33.9645L76.4661 33.9645C76.4661 35.5169 76.2929 36.283 76.1255 36.6156L77.1972 37.1549ZM89.0545 25.0956H90.2542C90.2542 23.8353 89.802 22.6652 88.9122 21.7995C88.0263 20.9376 86.795 20.4616 85.3766 20.4075L85.3309 21.6064L85.2852 22.8053C86.2212 22.841 86.8516 23.1425 87.2389 23.5194C87.6223 23.8923 87.8547 24.4219 87.8547 25.0956H89.0545ZM85.3309 21.6064L85.3553 20.4069L85.1245 20.4022L85.1001 21.6017L85.0757 22.8013L85.3066 22.8059L85.3309 21.6064ZM85.1001 21.6017V20.4019C81.0526 20.4019 78.1321 22.756 76.3821 26.1981L77.4516 26.7419L78.5211 27.2856C79.9685 24.4388 82.1691 22.8015 85.1001 22.8015V21.6017ZM76.5909 27.2503L76.5999 26.0506L75.9713 26.0459L75.9623 27.2456L75.9534 28.4454L76.582 28.45L76.5909 27.2503ZM75.9623 27.2456L75.9623 26.0458C73.287 26.0458 70.7825 26.5607 68.7906 27.597C66.7898 28.6378 65.2478 30.243 64.7017 32.4034L65.8649 32.6974L67.0281 32.9914C67.3652 31.6579 68.3378 30.5373 69.898 29.7257C71.4671 28.9095 73.5697 28.4454 75.9623 28.4454L75.9623 27.2456ZM65.8649 32.6974L64.7074 32.3817C64.5531 32.9476 64.5117 33.5263 64.5117 34.0793L65.7115 34.0793L66.9112 34.0794C66.9112 33.6343 66.9465 33.2917 67.0224 33.013L65.8649 32.6974ZM65.7115 34.0793L64.5119 34.1004L64.5154 34.3007L65.715 34.2797L66.9146 34.2586L66.911 34.0583L65.7115 34.0793ZM65.715 34.2797L64.5159 34.3201C64.5306 34.7571 64.5855 35.1818 64.6791 35.5927L65.8489 35.3264L67.0188 35.06C66.9597 34.8004 66.9238 34.5271 66.9141 34.2393L65.715 34.2797ZM65.0134 42.064L63.9163 41.5784C63.8239 41.7869 63.7451 42.0009 63.6794 42.2197L64.8286 42.5645L65.9778 42.9093C66.0151 42.7849 66.0593 42.6652 66.1105 42.5497L65.0134 42.064ZM64.8286 42.5645L63.6589 42.2978L63.5798 42.6446L64.7495 42.9113L65.9193 43.1781L65.9984 42.8313L64.8286 42.5645ZM64.7495 42.9113L63.5733 42.6749C63.4896 43.0913 63.4367 43.5309 63.4367 44.0232L64.6365 44.0232L65.8362 44.0232C65.8362 43.7096 65.8692 43.4293 65.9258 43.1477L64.7495 42.9113ZM64.6365 44.0232L63.4368 44.0402L63.4391 44.206L64.6388 44.189L65.8385 44.1721L65.8361 44.0063L64.6365 44.0232ZM64.3676 44.4369L64.7122 43.2877C64.7403 43.2961 64.7831 43.3132 64.831 43.345L64.1671 44.3443L63.5032 45.3437C63.6716 45.4556 63.848 45.5336 64.0231 45.5861L64.3676 44.4369ZM64.0368 44.0689L65.2365 44.0579C65.2364 44.0461 65.2363 44.0346 65.2363 44.0232H64.0366H62.8368C62.8368 44.0423 62.8369 44.0613 62.837 44.08L64.0368 44.0689ZM64.0366 44.0232L65.2363 44.0232C65.2363 43.547 65.3036 43.1363 65.4102 42.7096L64.2463 42.4186L63.0823 42.1276C62.9418 42.6898 62.8368 43.3014 62.8368 44.0232L64.0366 44.0232ZM64.2463 42.4186L65.4072 42.7215L65.4107 42.708L64.2498 42.4052L63.0889 42.1023L63.0854 42.1158L64.2463 42.4186ZM64.2498 42.4052L65.3931 42.7689L65.3972 42.756L64.2539 42.3923L63.1106 42.0285L63.1065 42.0414L64.2498 42.4052ZM64.2539 42.3923L65.4031 42.737C65.4864 42.4592 65.5985 42.201 65.7381 41.9598L64.6999 41.3585L63.6616 40.7572C63.4273 41.1619 63.2412 41.5925 63.1047 42.0475L64.2539 42.3923ZM65.3913 35.93L66.5352 35.5679C66.3908 35.1118 66.3113 34.6168 66.3113 34.0793H65.1116H63.9118C63.9118 34.8575 64.0275 35.5969 64.2475 36.292L65.3913 35.93ZM65.1116 34.0793L66.3113 34.0794C66.3113 33.6107 66.3475 33.2115 66.4416 32.8628L65.2832 32.5503L64.1248 32.2379C63.9541 32.8707 63.9118 33.5034 63.9118 34.0793L65.1116 34.0793ZM65.2832 32.5503L66.4464 32.8443C66.8356 31.3047 67.9505 30.0626 69.6214 29.1934L69.0677 28.129L68.514 27.0647C66.4036 28.1625 64.7184 29.8887 64.12 32.2563L65.2832 32.5503ZM69.0677 28.129L69.6214 29.1934C71.2961 28.3223 73.4991 27.8455 75.9623 27.8455L75.9623 26.6457L75.9623 25.4459C73.2165 25.4459 70.6116 25.9735 68.514 27.0647L69.0677 28.129ZM77.2264 25.897L78.2686 26.4915C79.7958 23.8144 82.07 22.2016 85.1001 22.2016V21.0018V19.802C81.032 19.802 78.0433 22.0437 76.1843 25.3025L77.2264 25.897ZM85.1001 21.0018L85.1001 22.2016C86.2279 22.2017 87.0612 22.5385 87.6062 23.041L88.4194 22.1588L89.2326 21.2767C88.1616 20.2894 86.7076 19.8021 85.1001 19.802L85.1001 21.0018ZM88.4194 22.1588L87.6062 23.0409C88.1485 23.5409 88.4546 24.2491 88.4546 25.0956H89.6544H90.8541C90.8541 23.6419 90.3122 22.2721 89.2327 21.2768L88.4194 22.1588ZM89.6544 25.0956L88.4546 25.0956C88.4546 25.9265 88.1648 26.5431 87.7402 26.953L88.5735 27.8162L89.4067 28.6794C90.3403 27.7783 90.8541 26.5191 90.8541 25.0956L89.6544 25.0956ZM88.5735 27.8162L87.7403 26.953C87.3114 27.3669 86.7074 27.6053 86.021 27.6053V28.8051V30.0049C87.2647 30.0049 88.4863 29.5679 89.4067 28.6795L88.5735 27.8162ZM86.021 28.8051L86.0211 27.6053C84.8845 27.6053 84.1532 27.1215 83.9083 26.3051L82.7591 26.6498L81.6099 26.9946C82.2545 29.1431 84.1978 30.0048 86.021 30.0049L86.021 28.8051ZM82.7591 26.6498L83.9113 26.3153L83.9008 26.279L82.7486 26.6135L81.5964 26.948L81.6069 26.9843L82.7591 26.6498ZM82.7486 26.6135L83.9305 26.4071L83.924 26.3702L82.7421 26.5766L81.5602 26.783L81.5667 26.8199L82.7486 26.6135ZM82.7421 26.5766L83.9256 26.3793C83.8869 26.147 83.857 25.9614 83.857 25.7482H82.6572H81.4574C81.4574 26.1846 81.5216 26.5516 81.5587 26.7738L82.7421 26.5766ZM82.5733 25.6984L81.9582 24.6682C81.4665 24.9618 81.0175 25.3582 80.6273 25.8287L81.5508 26.5946L82.4743 27.3606C82.7124 27.0735 82.9587 26.8656 83.1884 26.7285L82.5733 25.6984ZM81.9205 27.7786L81.438 28.8771C83.4198 29.7475 84.7492 31.0981 85.1652 32.8213L86.3315 32.5398L87.4978 32.2582C86.8541 29.5917 84.8391 27.7501 82.4029 26.6801L81.9205 27.7786ZM86.3315 32.5398L85.1663 32.8256L85.212 33.0119L86.3772 32.7261L87.5425 32.4402L87.4968 32.254L86.3315 32.5398ZM86.3772 32.7261L85.2064 32.988C85.2781 33.3087 85.3063 33.6684 85.3063 34.0794L86.5061 34.0793L87.7059 34.0793C87.7059 33.5696 87.6721 33.0187 87.5481 32.4641L86.3772 32.7261ZM86.5061 34.0793H85.3063C85.3063 35.9925 84.3452 37.5163 82.6955 38.5867L83.3485 39.5932L84.0015 40.5997C86.2134 39.1646 87.7059 36.9387 87.7059 34.0793H86.5061ZM83.3485 39.5932L82.6955 38.5867C81.0291 39.6678 78.6662 40.2751 75.9623 40.2751V41.4749V42.6746C78.9849 42.6746 81.8404 42.0018 84.0015 40.5997L83.3485 39.5932ZM75.9623 41.4749L75.9623 40.2751C74.6616 40.2751 73.4336 40.1552 72.3277 39.8956L72.0535 41.0636L71.7793 42.2317C73.1033 42.5425 74.5211 42.6746 75.9623 42.6746L75.9623 41.4749ZM71.3619 40.999L71.2585 39.8037C70.6115 39.8597 70.069 39.9992 69.6591 40.2561L70.2962 41.2727L70.9333 42.2894C70.9027 42.3086 70.9167 42.2929 71.0088 42.2675C71.0984 42.2427 71.2449 42.2134 71.4653 42.1944L71.3619 40.999ZM70.2962 41.2727L69.659 40.2561C69.4538 40.3847 69.2248 40.5775 69.0645 40.8706C68.9015 41.1684 68.8738 41.453 68.8738 41.643H70.0735H71.2733C71.2733 41.6891 71.2665 41.8452 71.1696 42.0223C71.0754 42.1945 70.9577 42.2741 70.9333 42.2894L70.2962 41.2727ZM70.0735 41.643L68.8738 41.6431C68.8738 41.7869 68.8891 41.9563 68.9455 42.1338C69.0104 42.3379 69.1075 42.4836 69.1854 42.5796L70.1169 41.8234L71.0484 41.0673C71.0689 41.0926 71.1071 41.1419 71.1456 41.2096C71.1836 41.2763 71.2121 41.3432 71.2324 41.4072C71.2713 41.5295 71.2733 41.6191 71.2733 41.6429L70.0735 41.643ZM70.1169 41.8234L69.1864 42.5808C69.4083 42.8535 69.7205 43.0249 70.0696 43.1393L70.4432 41.9992L70.8169 40.8591C70.7198 40.8273 70.8768 40.8564 71.0474 41.066L70.1169 41.8234ZM70.4432 41.9992L70.0697 43.1393C70.7436 43.3601 71.7654 43.4333 73.1978 43.4333L73.1978 42.2335L73.1978 41.0337C71.7388 41.0337 71.0799 40.9452 70.8167 40.859L70.4432 41.9992ZM73.1978 42.2335H71.998V42.8334H73.1978H74.3976V42.2335H73.1978ZM73.1978 42.8334L73.2073 41.6337L72.6912 41.6296L72.6817 42.8293L72.6721 44.029L73.1882 44.0331L73.1978 42.8334ZM72.6817 42.8293L72.6997 41.6297C71.5075 41.6118 70.8968 41.5237 70.6037 41.4201C70.4774 41.3754 70.5111 41.3612 70.5762 41.4376C70.657 41.5325 70.6729 41.6306 70.674 41.6478L69.4766 41.7238L68.2792 41.7999C68.3047 42.2011 68.4355 42.6249 68.7494 42.9935C69.0476 43.3436 69.4326 43.5511 69.8035 43.6823C70.505 43.9304 71.4724 44.0111 72.6637 44.0289L72.6817 42.8293ZM69.4766 41.7238L70.6756 41.6804L70.6727 41.5995L69.4737 41.643L68.2747 41.6864L68.2776 41.7673L69.4766 41.7238ZM69.4737 41.643H70.6734C70.6734 41.64 70.6731 41.6751 70.6485 41.7246C70.6229 41.7762 70.5948 41.7952 70.6046 41.7882C70.6497 41.7558 70.8798 41.6314 71.5108 41.5883L71.429 40.3913L71.3472 39.1943C70.5208 39.2508 69.7732 39.4311 69.205 39.839C68.5663 40.2977 68.2739 40.9583 68.2739 41.643H69.4737ZM72.1152 40.4625L71.8338 41.6288C73.126 41.9406 74.5254 42.0747 75.9623 42.0747L75.9623 40.875L75.9623 39.6752C74.6679 39.6752 73.4637 39.5537 72.3967 39.2962L72.1152 40.4625ZM75.9623 40.875V42.0747C78.8602 42.0747 81.552 41.4381 83.5781 40.1581C85.6344 38.859 87.02 36.8741 87.1019 34.3181L85.9027 34.2797L84.7035 34.2413C84.6516 35.8624 83.807 37.1752 82.2965 38.1295C80.7559 39.1028 78.5445 39.6752 75.9623 39.6752V40.875ZM85.9027 34.2797L87.1023 34.3007L87.1058 34.1004L85.9062 34.0793L84.7066 34.0583L84.7031 34.2586L85.9027 34.2797ZM85.9062 34.0793L87.106 34.0793C87.106 33.5263 87.0646 32.9476 86.9102 32.3817L85.7527 32.6974L84.5952 33.013C84.6712 33.2917 84.7064 33.6343 84.7064 34.0794L85.9062 34.0793ZM85.7527 32.6974L86.9199 32.4195C86.4349 30.3826 85.0567 28.8301 83.2587 27.7836L82.6551 28.8206L82.0516 29.8575C83.422 30.6551 84.2866 31.7196 84.5856 32.9752L85.7527 32.6974ZM81.7068 25.5828L82.4817 26.4987C82.768 26.2566 83.0564 26.0946 83.3295 26.0036L82.9501 24.8654L82.5707 23.7272C81.9708 23.9271 81.4192 24.2546 80.9319 24.6668L81.7068 25.5828ZM83.3052 25.2632L82.1322 25.0111C82.0784 25.2613 82.0573 25.5089 82.0573 25.7482L83.2571 25.7482L84.4569 25.7482C84.4569 25.6493 84.4656 25.5735 84.4782 25.5153L83.3052 25.2632ZM83.2571 25.7482L82.058 25.7878L82.0644 25.9829L83.2635 25.9433L84.4627 25.9037L84.4562 25.7086L83.2571 25.7482ZM83.2635 25.9433L82.0664 26.0232C82.0835 26.28 82.1228 26.5093 82.1504 26.6748L83.3338 26.4776L84.5173 26.2803C84.4873 26.1004 84.4687 25.9844 84.4606 25.8635L83.2635 25.9433ZM83.3338 26.4776L82.1846 26.8223C82.7286 28.6356 84.3665 29.4049 86.021 29.405L86.021 28.2052L86.0211 27.0054C85.0651 27.0054 84.6301 26.623 84.483 26.1328L83.3338 26.4776ZM86.021 28.2052V29.405C88.2142 29.405 90.1356 27.866 90.2489 25.3302L89.0504 25.2766L87.8518 25.2231C87.7999 26.3828 87.0266 27.0054 86.021 27.0054V28.2052ZM89.0504 25.2766L90.2498 25.3038L90.2539 25.1228L89.0545 25.0956L87.855 25.0684L87.8509 25.2495L89.0504 25.2766ZM71.429 40.3913L71.5108 41.5883C71.5776 41.5837 71.6788 41.5914 71.8338 41.6288L72.1152 40.4625L72.3967 39.2962C72.1023 39.2252 71.7416 39.1674 71.3472 39.1943L71.429 40.3913ZM72.0535 41.0636L72.3277 39.8956C72.0316 39.8261 71.6627 39.7688 71.2585 39.8037L71.3619 40.999L71.4653 42.1944C71.5252 42.1892 71.6218 42.1947 71.7793 42.2317L72.0535 41.0636ZM81.5508 26.5946L80.6273 25.8287C80.1666 26.3842 80.1039 27.0735 80.2966 27.6428C80.4817 28.1899 80.8994 28.6406 81.438 28.8771L81.9205 27.7786L82.4029 26.6801C82.4661 26.7079 82.5332 26.7664 82.5695 26.8737C82.5891 26.9316 82.6019 27.0123 82.5868 27.1072C82.571 27.2064 82.5287 27.295 82.4743 27.3606L81.5508 26.5946ZM75.9623 26.6457V27.8455C76.939 27.8455 77.8072 27.3004 78.2686 26.4915L77.2264 25.897L76.1843 25.3025C76.1271 25.4029 76.0323 25.4459 75.9623 25.4459V26.6457ZM64.1671 44.3443L64.831 43.345C65.1837 43.5793 65.2353 43.9228 65.2365 44.0579L64.0368 44.0689L62.837 44.08C62.8403 44.4306 62.9709 44.9901 63.5032 45.3437L64.1671 44.3443ZM64.6388 44.189L63.4396 44.2256C63.432 43.9763 63.526 43.7196 63.7268 43.5255C63.9484 43.3111 64.3193 43.1699 64.7122 43.2877L64.3676 44.4369L64.0231 45.5861C64.5648 45.7486 65.0736 45.561 65.3948 45.2504C65.6952 44.96 65.8504 44.5571 65.838 44.1525L64.6388 44.189ZM77.4516 26.7419L76.3821 26.1981C76.4347 26.0948 76.5303 26.0488 76.6188 26.0508L76.5909 27.2503L76.563 28.4498C77.3699 28.4685 78.1429 28.0296 78.5211 27.2856L77.4516 26.7419ZM64.6999 41.3585L65.7381 41.9598C66.7612 40.1933 67.1773 37.5966 66.5352 35.5679L65.3913 35.93L64.2475 36.292C64.6606 37.5972 64.391 39.4978 63.6616 40.7572L64.6999 41.3585ZM65.8369 49.0344L66.6133 49.9491C67.4815 49.2122 67.5393 47.786 66.6085 47.0137L65.8424 47.9371L65.0764 48.8605C64.926 48.7357 64.8852 48.5771 64.8861 48.4741C64.8869 48.3728 64.9277 48.2325 65.0606 48.1197L65.8369 49.0344ZM82.9501 24.8654L83.3956 25.9794C82.8738 26.1881 82.4548 25.9014 82.3017 25.7173C82.1618 25.5491 82.0699 25.3007 82.1322 25.0111L83.3052 25.2632L84.4782 25.5153C84.5879 25.0049 84.4233 24.5156 84.1465 24.1828C83.8564 23.834 83.2361 23.4589 82.5046 23.7514L82.9501 24.8654ZM88.8857 47.5917H87.686C87.686 48.2555 88.2241 48.7936 88.8879 48.7936V47.5939V46.3941C89.5493 46.3941 90.0855 46.9303 90.0855 47.5917H88.8857ZM65.6474 47.2228L66.1965 48.2895C65.8412 48.4724 65.4341 48.3912 65.1767 48.1489L65.9988 47.2752L66.821 46.4014C66.3721 45.979 65.6873 45.8528 65.0983 46.156L65.6474 47.2228ZM82.6551 28.8206L83.2587 27.7836C82.8363 27.5378 82.5348 27.166 82.4269 26.8691C82.3768 26.7315 82.3829 26.653 82.3889 26.624C82.392 26.6095 82.3997 26.5681 82.4817 26.4987L81.7068 25.5828L80.9319 24.6668C79.918 25.5245 79.8194 26.7199 80.1717 27.689C80.5015 28.5961 81.2256 29.3767 82.0516 29.8575L82.6551 28.8206ZM65.8489 35.3264L64.6791 35.5927C64.8564 36.3714 64.8626 37.4443 64.7097 38.5804C64.558 39.7079 64.2638 40.7935 63.9163 41.5784L65.0134 42.064L66.1105 42.5497C66.5683 41.5156 66.9126 40.2022 67.0878 38.9004C67.2618 37.6074 67.2831 36.221 67.0188 35.06L65.8489 35.3264ZM66.2723 47.5139L65.5163 48.4456C65.4632 48.4025 65.4517 48.3669 65.4553 48.3761C65.4592 48.3862 65.4683 48.4192 65.4675 48.4697C65.4667 48.5198 65.4564 48.5601 65.4473 48.5822C65.4381 48.6046 65.4408 48.5838 65.4813 48.5501L66.2501 49.4712L67.0189 50.3923C67.627 49.8847 67.8563 49.1313 67.8667 48.5098C67.8771 47.8902 67.6725 47.105 67.0283 46.5823L66.2723 47.5139ZM82.6572 25.7482L83.857 25.7482C83.857 24.8572 82.867 24.1255 81.9582 24.6682L82.5733 25.6984L83.1884 26.7285C82.355 27.2261 81.4574 26.5514 81.4574 25.7482L82.6572 25.7482ZM88.8879 47.5939V48.7936C88.2726 48.7936 87.7559 48.3269 87.6959 47.7124L88.89 47.5958L90.0841 47.4792C90.0239 46.8625 89.5054 46.3941 88.8879 46.3941V47.5939ZM65.5582 47.6843L66.3865 46.8163C66.6486 47.0664 66.7146 47.4102 66.6578 47.682C66.604 47.9392 66.4389 48.1647 66.1965 48.2895L65.6474 47.2228L65.0983 46.156C64.3471 46.5426 63.8677 47.7295 64.7299 48.5523L65.5582 47.6843Z" fill="#B36843" mask="url(#path-3-outside-1_189_43)"/>
<path d="M54.0136 26.0461C57.0452 26.0462 59.663 26.5348 61.5956 27.8401C63.5914 29.1882 64.6816 31.2853 64.8818 34.0745C64.9273 34.4235 64.9267 34.7599 64.9267 35.0393V40.1428C65.0534 40.0658 65.2021 40.0208 65.3613 40.0208H65.4677C65.8733 40.0208 66.1415 40.2961 66.2441 40.5657C66.3438 40.8278 66.3272 41.1717 66.1025 41.4417C65.8224 41.778 65.4052 41.7903 65.1357 41.7014C65.0683 41.6791 64.9966 41.6455 64.9267 41.6008V42.9104C64.9267 43.1725 64.9456 43.3357 64.9638 43.4299C64.965 43.4362 64.9666 43.442 64.9677 43.4475C65.0904 43.5567 65.2363 43.744 65.2363 44.0237C65.2361 44.3042 65.1195 44.5848 64.9091 44.7766C64.677 44.9881 64.2967 45.1038 63.9247 44.8987C63.316 44.5628 63.1566 43.8717 63.1308 43.1458V43.134L63.1269 42.9202V35.0393C63.1269 34.7245 63.126 34.4988 63.0947 34.2795L63.0917 34.2581L63.0898 34.2356C62.932 31.94 62.101 30.4145 60.7265 29.427C59.3224 28.4183 57.2676 27.9091 54.5507 27.8508V27.8518L54.0097 27.8459C50.7761 27.8464 48.515 28.4493 47.0458 29.3254C45.5891 30.1943 44.9106 31.3269 44.7812 32.4583L44.7763 32.4973L44.7665 32.5354C44.7495 32.6036 44.746 32.7178 44.746 32.8899L44.7519 33.1145C44.8109 34.1421 45.2734 34.8489 45.9697 35.2415C46.3955 35.4677 46.8994 35.623 47.4872 35.6594L47.7636 35.6672C48.5603 35.6658 49.2704 35.4635 49.7773 35.0911C50.2668 34.7312 50.6027 34.1897 50.6445 33.4026L50.6494 33.2356L50.6367 32.9622C50.5775 32.3482 50.3169 31.8915 49.9326 31.6272L49.8154 31.553L50.1357 31.0461L49.8027 31.5452C49.4525 31.3114 49.331 30.9065 49.3359 30.6038C49.3407 30.3116 49.4972 29.7742 50.081 29.6848L50.3437 29.6497C50.6131 29.6189 50.901 29.6018 51.2109 29.6018H51.2216L51.5068 29.6077H51.5185C53.0786 29.6646 54.1905 30.1608 54.9091 30.9338C55.6215 31.7002 55.8808 32.6669 55.8808 33.5422V33.5549L55.8749 33.8372L55.874 33.845V33.8528C55.8558 34.2383 55.7907 34.6344 55.5595 35.0188C55.3312 35.3982 54.9779 35.7056 54.498 35.9934C53.5631 36.5539 51.9461 37.1542 49.2119 38.0657L49.1992 38.0696L49.0224 37.4963L49.1982 38.0696C48.6989 38.2232 48.2059 38.3753 47.6376 38.5647L47.6337 38.5667V38.5657C46.1632 39.0436 45.2181 39.6547 44.6357 40.3889C44.0601 41.1146 43.7871 42.0267 43.787 43.217H43.7861L43.7919 43.4348L43.8056 43.635C43.8978 44.6275 44.3212 45.4964 45.0419 46.1448C45.8134 46.8388 46.9665 47.3153 48.5156 47.3723H48.5146L48.8349 47.3772C49.6815 47.3769 50.3942 47.304 51.0585 47.1292L51.082 47.1233C52.8318 46.7383 54.1677 45.8395 55.2021 44.6819L55.2597 44.6233C55.4007 44.4954 55.5861 44.4212 55.7822 44.4211C56.0865 44.4211 56.3522 44.5977 56.4804 44.8557C57.1804 46.2669 58.7625 47.3781 61.8456 47.3782C62.7993 47.3782 63.6305 47.2672 64.3036 47.0901H64.3046C64.7071 46.9848 65.0599 46.8497 65.3691 46.6907C65.6599 46.5411 66.0154 46.5551 66.2929 46.7434L66.4062 46.8352L66.4736 46.9065C66.7894 47.2846 66.8088 47.9693 66.2314 48.2717C65.7847 48.5056 65.2936 48.6919 64.7607 48.8313C64.7592 48.8317 64.7572 48.8309 64.7558 48.8313C63.9154 49.0519 62.9307 49.177 61.8456 49.177C60.1873 49.177 58.7918 48.8896 57.6591 48.3508C56.3904 47.7473 54.7224 47.5949 53.5605 48.1584C52.9209 48.4686 52.2248 48.7147 51.4687 48.8811C51.4649 48.8819 51.4608 48.8813 51.457 48.8821C50.619 49.0961 49.762 49.177 48.831 49.177C46.7774 49.177 45.0579 48.5801 43.8378 47.4827C42.6112 46.3791 41.9873 44.8552 41.9872 43.217C41.9873 41.7395 42.3324 40.3957 43.2255 39.2698C43.922 38.392 44.8866 37.7302 46.0839 37.2239C45.7441 37.1209 45.4241 36.9896 45.1259 36.8313L45.1025 36.8196L45.0976 36.8167L45.0956 36.8157C43.7072 36.038 42.9464 34.6071 42.9462 32.8899C42.9462 32.7838 42.9443 32.5032 42.997 32.2209C43.2087 30.4652 44.2693 28.8852 46.123 27.7795C47.9633 26.682 50.58 26.0461 54.0136 26.0461ZM50.9902 48.7815C51.0359 48.8143 51.0854 48.84 51.1376 48.8586C51.0855 48.84 51.0359 48.8144 50.9902 48.7815ZM53.1943 38.3958C53.6793 38.3645 54.1435 38.5138 54.5341 38.7629C55.3056 39.255 55.8808 40.1911 55.8808 41.2454V41.6194L55.8769 41.761V41.7717C55.801 43.5411 54.5258 44.4306 53.3613 44.4309H53.3476L53.2411 44.429L53.2275 44.428C52.5787 44.3991 52.0004 44.1552 51.5761 43.6897C51.1583 43.2313 50.9369 42.6098 50.8896 41.9036L50.8886 41.8938V41.8831L50.8798 41.6233V41.6047C50.8799 40.5952 51.169 39.7621 51.8408 39.054C52.2283 38.6454 52.6996 38.4277 53.1943 38.3958ZM53.7011 40.1907C53.5162 40.0785 53.3496 40.0895 53.1992 40.2375C52.8461 40.5851 52.6797 40.9647 52.6796 41.6047C52.6797 42.1207 52.8115 42.3682 52.8974 42.468C52.9644 42.5459 53.0836 42.6311 53.3613 42.6311C53.5011 42.631 53.6734 42.573 53.8085 42.4397C53.9265 42.3232 54.0809 42.0854 54.081 41.6047V40.8928C54.081 40.5811 53.9087 40.3166 53.7011 40.1907ZM65.5117 40.5618C65.4682 40.5475 65.3426 40.5296 65.2285 40.6252L65.1806 40.6741C65.0902 40.7827 65.091 40.9084 65.123 40.9924C65.1544 41.0746 65.2503 41.1918 65.4111 41.2151C65.5789 41.1917 65.7087 41.0553 65.7206 40.884V40.8586C65.7086 40.6599 65.5598 40.5777 65.5117 40.5618ZM65.4677 40.6204C65.6778 40.6204 65.7759 40.8964 65.6415 41.0579L65.6093 41.0891C65.4415 41.2286 65.123 41.1113 65.123 40.884V40.8586C65.123 40.7436 65.2048 40.6473 65.3134 40.6252L65.3613 40.6204H65.4677ZM52.0654 31.4612C52.3267 32.0089 52.4492 32.6206 52.4492 33.2356C52.4491 33.9608 52.2918 34.609 52.0097 35.1682C52.8315 34.8463 53.3555 34.5965 53.6943 34.3733C53.9841 34.1822 54.0236 34.0818 54.0302 34.0667C54.0509 34.0193 54.081 33.9141 54.081 33.5422C54.081 32.989 53.913 32.4852 53.5566 32.1233C53.2946 31.8574 52.8441 31.5801 52.0654 31.4612Z" fill="#B36843" stroke="#B36843" stroke-width="1.19978"/>
<path d="M18.29 19.5194C19.4493 19.5196 20.4263 20.2829 20.7637 21.328C21.0987 20.2788 22.0819 19.5194 23.2422 19.5194H34.6445C36.0848 19.5194 37.246 20.6971 37.2461 22.1298C37.2461 23.4963 36.1818 24.6264 34.8301 24.7128C34.8223 24.8274 34.8284 25.0247 34.9033 25.329L35.7188 28.4491C36.1952 30.2704 38.7955 30.2296 39.2148 28.3944L39.9053 25.37L39.9072 25.3612C39.9723 25.0815 40.0059 24.8702 40.0205 24.7137C38.6534 24.6436 37.5723 23.5072 37.5723 22.1298C37.5724 20.6972 38.7328 19.5197 40.1729 19.5194H46.9688C48.4052 19.5194 49.5702 20.6836 49.5703 22.12C49.5703 23.5565 48.4053 24.7216 46.9688 24.7216H46.6045L46.5488 24.7245C46.5419 24.7308 46.5282 24.7456 46.5068 24.7743C46.3937 24.9265 46.2453 25.2538 46.0791 25.9169L40.7061 47.8788L40.123 47.7362L40.7051 47.8798C40.573 48.4164 40.0917 48.7938 39.5391 48.7938H32.1514C30.8065 48.7938 29.6256 47.8984 29.2627 46.6034L28.334 43.2899C27.843 41.5379 25.3591 41.5378 24.8682 43.2899L23.9404 46.6034C23.5776 47.8984 22.3966 48.7938 21.0518 48.7938H14.8828C13.5012 48.7936 12.2983 47.8496 11.9697 46.5077L6.93066 25.9218V25.9208L6.87207 25.6952L6.76758 25.3485C6.66672 25.0471 6.57745 24.8719 6.50488 24.7743C6.4825 24.7442 6.46755 24.7303 6.46094 24.7245C6.45266 24.723 6.43529 24.7216 6.40625 24.7216H6.04199C4.60555 24.7214 3.44141 23.5565 3.44141 22.12C3.44153 20.6836 4.60563 19.5195 6.04199 19.5194H18.29ZM6.04199 21.3192C5.59956 21.3193 5.24133 21.6776 5.24121 22.12C5.24121 22.5625 5.59948 22.9216 6.04199 22.9218H6.40625C7.06551 22.9218 7.5765 23.2012 7.94824 23.701C8.28745 24.1573 8.50201 24.7844 8.67773 25.4872L8.67871 25.4901L13.6064 45.6219C13.8036 46.4273 14.5254 46.994 15.3545 46.994H20.5967C21.4036 46.994 22.1124 46.4566 22.3301 45.6796L23.7129 40.743C24.5311 37.8228 28.6709 37.8228 29.4893 40.743L30.873 45.6796C31.0908 46.4565 31.7995 46.994 32.6064 46.994H37.6572C38.4862 46.9939 39.2082 46.4272 39.4053 45.6219L44.332 25.4901L44.333 25.4872C44.4984 24.8257 44.6971 24.2353 44.998 23.7909C45.3201 23.3153 45.768 22.9975 46.374 22.9335L46.3906 22.9315L46.4072 22.9305L46.5742 22.9227L46.5889 22.9218H46.9688C47.4114 22.9218 47.7705 22.5626 47.7705 22.12C47.7704 21.6775 47.4113 21.3192 46.9688 21.3192H40.1729C39.7359 21.3195 39.3722 21.682 39.3721 22.1298C39.3721 22.5671 39.7278 22.9218 40.1543 22.9218C40.7018 22.9218 41.3414 23.0543 41.6562 23.6932C41.7939 23.9726 41.836 24.292 41.8281 24.621C41.8202 24.9527 41.761 25.3348 41.6602 25.7684L40.4248 31.1835C39.7265 34.2427 35.3931 34.3108 34.5986 31.2753L33.1621 25.785L33.1602 25.7782V25.7772C32.9822 25.0646 32.9734 24.4164 33.1855 23.8993C33.413 23.3451 33.8732 23.0028 34.4463 22.9344L34.4648 22.9315L34.4834 22.9305L34.6309 22.9227L34.6641 23.5145V22.9218C35.0906 22.9218 35.4463 22.5671 35.4463 22.1298C35.4462 21.6818 35.0817 21.3192 34.6445 21.3192H23.2422C22.7997 21.3192 22.4405 21.6775 22.4404 22.12V22.4081C22.4404 22.6915 22.6707 22.9218 22.9541 22.9218C23.6175 22.9218 24.1191 23.2048 24.4844 23.705C24.8133 24.1556 25.0286 24.7777 25.2207 25.4686L25.2646 25.6239C25.4165 26.1562 25.4184 26.7206 25.2695 27.2538L23.9736 31.8944C23.1361 34.8937 18.8477 34.7878 18.1592 31.7509L16.8027 25.7655L16.8018 25.7626C16.645 25.0568 16.64 24.4159 16.8438 23.9052C17.0638 23.3537 17.5116 23.0041 18.0898 22.9344L18.1094 22.9315L18.1279 22.9305L18.2744 22.9227L18.3086 23.5145V22.9218C18.7355 22.9216 19.0908 22.5671 19.0908 22.1298C19.0908 21.6821 18.7272 21.3195 18.29 21.3192H6.04199ZM20.7266 23.0262C20.3827 23.9565 19.5245 24.6386 18.4922 24.7118C18.491 24.7268 18.4879 24.7429 18.4873 24.7606C18.4826 24.8949 18.4964 25.0948 18.5576 25.371L19.3896 29.0389C19.8026 30.8611 22.3752 30.9252 22.8779 29.1259L23.4932 26.9227C23.5808 26.6087 23.579 26.2762 23.4893 25.9628L24.0664 25.7977L23.9111 25.8358L23.4873 25.954C23.296 25.2652 23.1496 24.9287 23.0312 24.7665C23.0153 24.7447 23.0034 24.7313 22.9961 24.7235C22.9874 24.7226 22.9738 24.7216 22.9541 24.7216C21.8909 24.7216 20.997 24.0034 20.7266 23.0262Z" fill="#B36843" stroke="#B36843" stroke-width="1.19978"/>
<mask id="path-7-outside-2_189_43" maskUnits="userSpaceOnUse" x="2" y="18" width="124" height="39" fill="black">
<rect fill="white" x="2" y="18" width="124" height="39"/>
<path d="M43.8263 25.0392L38.4513 47H29.6977L25.5128 32.0651L21.328 47H12.3824L7.00738 25.0392C6.66185 23.6571 6.23952 22.9276 5.31809 22.9276H3.55201V20.1249H18.6021V22.9276H17.2199C16.4137 22.9276 15.9913 23.6571 16.2985 25.0392L19.7539 40.2812L23.7851 25.8455L23.5548 25.0392C23.1708 23.6571 22.7869 22.9276 21.8655 22.9276H20.7521V20.1249H34.9575V22.9276H33.5753C32.7691 22.9276 32.3084 23.6571 32.6539 25.0392L36.57 40.0125L39.987 25.0392C40.3709 23.3883 40.0254 22.9276 39.0655 22.9276H37.6834V20.1249H47.2816V22.9276H45.5156C44.5941 22.9276 44.1718 23.6571 43.8263 25.0392ZM66.8999 42.2009C66.8999 44.6964 65.8633 46.4241 63.3677 47.0768C62.6382 47.2688 61.7552 47.3839 60.757 47.3839C57.4552 47.3839 55.6123 46.1554 54.8061 44.4277H54.6141C53.5007 45.6946 52.0418 46.6929 50.1221 47.1152C49.3927 47.3071 48.6248 47.3839 47.7418 47.3839C44.0944 47.3839 42.098 45.2723 42.098 42.6232C42.098 40.0509 43.2882 38.4 46.3596 37.4017C46.9355 37.2098 47.4346 37.0562 47.9337 36.9026C53.8079 34.9446 54.1918 34.5223 54.1918 32.9482C54.1918 31.374 53.232 29.608 50.1221 29.608C49.1239 29.608 48.3944 29.7999 47.7802 30.0303C48.2793 30.0687 48.7016 30.2223 49.0471 30.4526C49.7766 30.8749 50.1605 31.6812 50.1605 32.641C50.1605 34.7142 48.5096 35.6741 46.6668 35.6741C45.8605 35.6741 45.1694 35.4821 44.5935 35.175C43.6337 34.6375 43.0578 33.6392 43.0578 32.2955C43.0578 32.1419 43.0578 31.9499 43.0962 31.7964C43.4034 29.1089 46.3212 26.6517 52.9248 26.6517C58.7989 26.6517 62.2543 28.5714 62.5999 33.6008C62.6382 33.8696 62.6382 34.1383 62.6382 34.4455V42.3161C62.6382 43.5062 62.9454 43.8902 63.6365 43.8902C64.2124 43.8902 64.6347 43.4678 64.6347 42.2777V40.6268H66.8999V42.2009ZM52.2721 43.2375C53.1552 43.2375 54.1918 42.5464 54.1918 41.0107V37.1714C51.4659 38.208 50.3909 39.1678 50.3909 41.0107C50.3909 42.4312 51.1203 43.2375 52.2721 43.2375ZM87.2362 47.7295C87.2362 52.375 82.7442 55.0625 74.9888 55.0625C68.654 55.0625 64.1236 54.3331 64.1236 51.0313C64.1236 49.6875 64.9682 48.6125 66.9647 47.9214C64.3923 46.9232 63.5477 45.1955 63.5477 43.4295C63.5477 42.8919 63.6245 42.4312 63.7396 41.9705C64.2004 40.4348 65.4673 39.283 67.6173 38.5151C65.7745 37.325 64.6227 35.6357 64.6227 33.4857C64.6227 32.9866 64.6611 32.5258 64.7763 32.1035C65.6593 28.6097 69.8057 26.6517 74.8736 26.6517C75.2959 26.6517 75.7183 26.6517 76.1022 26.6901C77.6763 23.2347 80.3254 21.0079 84.0112 21.0079C86.5067 21.0079 87.9656 22.5053 87.9656 24.5017C87.9656 26.4597 86.5835 27.6115 84.9326 27.6115C83.6272 27.6115 82.5906 27.0356 82.2451 25.8838C82.2067 25.6535 82.1683 25.4231 82.1683 25.1544C82.1683 24.7704 82.2451 24.4249 82.437 24.1178C82.2451 24.1562 82.0531 24.1946 81.8611 24.2713C80.7094 24.6553 79.6727 25.7303 79.0585 27.1892C81.9379 27.9955 84.0879 29.6848 84.6638 32.1035C84.779 32.5258 84.8174 32.9866 84.8174 33.4857C84.8174 37.7857 80.4406 40.2812 74.8736 40.2812C73.3763 40.2812 71.9557 40.1277 70.6888 39.7821C68.9611 39.8205 68.3852 40.358 68.3852 41.0491C68.3852 41.9321 69.2298 42.2393 72.1093 42.2393H78.9433C84.779 42.2393 87.2362 44.1973 87.2362 47.7295ZM72.4933 33.3705C72.4933 36.5571 73.2227 37.9009 74.8736 37.9009C76.5245 37.9009 77.1772 36.5571 77.1772 33.3705C77.1772 30.299 76.5245 28.9937 74.8736 28.9937C73.2227 28.9937 72.4933 30.299 72.4933 33.3705ZM74.9504 52.5286C79.2504 52.5286 80.9397 51.8759 80.9397 50.6089C80.9397 49.15 79.5576 48.6893 74.9504 48.6893C70.3816 48.6893 68.9995 49.15 68.9995 50.6089C68.9995 51.9143 70.7272 52.5286 74.9504 52.5286ZM98.9307 19.357V43.0455C98.9307 43.967 99.4682 44.3893 100.083 44.3893H101.618V47H87.7968V44.3893H89.3325C89.9852 44.3893 90.4843 43.967 90.4843 43.0455V23.3115C90.4843 22.3901 89.9852 21.9678 89.3325 21.9678H87.7968V19.357H98.9307ZM123.73 39.8589C123.039 44.3893 119.775 47.3839 114.055 47.3839C107.758 47.3839 102.806 43.583 102.806 37.0178C102.806 30.4526 107.758 26.6517 114.055 26.6517C119.66 26.6517 124.037 30.1071 124.037 37.133H111.444C111.444 37.8625 111.483 38.5151 111.559 39.091C111.905 42.7 113.249 44.2357 115.898 44.2357C118.47 44.2357 120.121 42.5848 120.582 39.8589H123.73ZM114.132 29.2624C112.596 29.2624 111.751 30.8365 111.521 34.5223H116.512C116.397 30.7982 115.783 29.2624 114.132 29.2624Z"/>
</mask>
<path d="M43.8263 25.0392L38.4513 47H29.6977L25.5128 32.0651L21.328 47H12.3824L7.00738 25.0392C6.66185 23.6571 6.23952 22.9276 5.31809 22.9276H3.55201V20.1249H18.6021V22.9276H17.2199C16.4137 22.9276 15.9913 23.6571 16.2985 25.0392L19.7539 40.2812L23.7851 25.8455L23.5548 25.0392C23.1708 23.6571 22.7869 22.9276 21.8655 22.9276H20.7521V20.1249H34.9575V22.9276H33.5753C32.7691 22.9276 32.3084 23.6571 32.6539 25.0392L36.57 40.0125L39.987 25.0392C40.3709 23.3883 40.0254 22.9276 39.0655 22.9276H37.6834V20.1249H47.2816V22.9276H45.5156C44.5941 22.9276 44.1718 23.6571 43.8263 25.0392ZM66.8999 42.2009C66.8999 44.6964 65.8633 46.4241 63.3677 47.0768C62.6382 47.2688 61.7552 47.3839 60.757 47.3839C57.4552 47.3839 55.6123 46.1554 54.8061 44.4277H54.6141C53.5007 45.6946 52.0418 46.6929 50.1221 47.1152C49.3927 47.3071 48.6248 47.3839 47.7418 47.3839C44.0944 47.3839 42.098 45.2723 42.098 42.6232C42.098 40.0509 43.2882 38.4 46.3596 37.4017C46.9355 37.2098 47.4346 37.0562 47.9337 36.9026C53.8079 34.9446 54.1918 34.5223 54.1918 32.9482C54.1918 31.374 53.232 29.608 50.1221 29.608C49.1239 29.608 48.3944 29.7999 47.7802 30.0303C48.2793 30.0687 48.7016 30.2223 49.0471 30.4526C49.7766 30.8749 50.1605 31.6812 50.1605 32.641C50.1605 34.7142 48.5096 35.6741 46.6668 35.6741C45.8605 35.6741 45.1694 35.4821 44.5935 35.175C43.6337 34.6375 43.0578 33.6392 43.0578 32.2955C43.0578 32.1419 43.0578 31.9499 43.0962 31.7964C43.4034 29.1089 46.3212 26.6517 52.9248 26.6517C58.7989 26.6517 62.2543 28.5714 62.5999 33.6008C62.6382 33.8696 62.6382 34.1383 62.6382 34.4455V42.3161C62.6382 43.5062 62.9454 43.8902 63.6365 43.8902C64.2124 43.8902 64.6347 43.4678 64.6347 42.2777V40.6268H66.8999V42.2009ZM52.2721 43.2375C53.1552 43.2375 54.1918 42.5464 54.1918 41.0107V37.1714C51.4659 38.208 50.3909 39.1678 50.3909 41.0107C50.3909 42.4312 51.1203 43.2375 52.2721 43.2375ZM87.2362 47.7295C87.2362 52.375 82.7442 55.0625 74.9888 55.0625C68.654 55.0625 64.1236 54.3331 64.1236 51.0313C64.1236 49.6875 64.9682 48.6125 66.9647 47.9214C64.3923 46.9232 63.5477 45.1955 63.5477 43.4295C63.5477 42.8919 63.6245 42.4312 63.7396 41.9705C64.2004 40.4348 65.4673 39.283 67.6173 38.5151C65.7745 37.325 64.6227 35.6357 64.6227 33.4857C64.6227 32.9866 64.6611 32.5258 64.7763 32.1035C65.6593 28.6097 69.8057 26.6517 74.8736 26.6517C75.2959 26.6517 75.7183 26.6517 76.1022 26.6901C77.6763 23.2347 80.3254 21.0079 84.0112 21.0079C86.5067 21.0079 87.9656 22.5053 87.9656 24.5017C87.9656 26.4597 86.5835 27.6115 84.9326 27.6115C83.6272 27.6115 82.5906 27.0356 82.2451 25.8838C82.2067 25.6535 82.1683 25.4231 82.1683 25.1544C82.1683 24.7704 82.2451 24.4249 82.437 24.1178C82.2451 24.1562 82.0531 24.1946 81.8611 24.2713C80.7094 24.6553 79.6727 25.7303 79.0585 27.1892C81.9379 27.9955 84.0879 29.6848 84.6638 32.1035C84.779 32.5258 84.8174 32.9866 84.8174 33.4857C84.8174 37.7857 80.4406 40.2812 74.8736 40.2812C73.3763 40.2812 71.9557 40.1277 70.6888 39.7821C68.9611 39.8205 68.3852 40.358 68.3852 41.0491C68.3852 41.9321 69.2298 42.2393 72.1093 42.2393H78.9433C84.779 42.2393 87.2362 44.1973 87.2362 47.7295ZM72.4933 33.3705C72.4933 36.5571 73.2227 37.9009 74.8736 37.9009C76.5245 37.9009 77.1772 36.5571 77.1772 33.3705C77.1772 30.299 76.5245 28.9937 74.8736 28.9937C73.2227 28.9937 72.4933 30.299 72.4933 33.3705ZM74.9504 52.5286C79.2504 52.5286 80.9397 51.8759 80.9397 50.6089C80.9397 49.15 79.5576 48.6893 74.9504 48.6893C70.3816 48.6893 68.9995 49.15 68.9995 50.6089C68.9995 51.9143 70.7272 52.5286 74.9504 52.5286ZM98.9307 19.357V43.0455C98.9307 43.967 99.4682 44.3893 100.083 44.3893H101.618V47H87.7968V44.3893H89.3325C89.9852 44.3893 90.4843 43.967 90.4843 43.0455V23.3115C90.4843 22.3901 89.9852 21.9678 89.3325 21.9678H87.7968V19.357H98.9307ZM123.73 39.8589C123.039 44.3893 119.775 47.3839 114.055 47.3839C107.758 47.3839 102.806 43.583 102.806 37.0178C102.806 30.4526 107.758 26.6517 114.055 26.6517C119.66 26.6517 124.037 30.1071 124.037 37.133H111.444C111.444 37.8625 111.483 38.5151 111.559 39.091C111.905 42.7 113.249 44.2357 115.898 44.2357C118.47 44.2357 120.121 42.5848 120.582 39.8589H123.73ZM114.132 29.2624C112.596 29.2624 111.751 30.8365 111.521 34.5223H116.512C116.397 30.7982 115.783 29.2624 114.132 29.2624Z" fill="white"/>
<path d="M43.8263 25.0392L42.6623 24.7482L42.6609 24.754L43.8263 25.0392ZM38.4513 47V48.1998H39.3928L39.6166 47.2852L38.4513 47ZM29.6977 47L28.5424 47.3237L28.7878 48.1998H29.6977V47ZM25.5128 32.0651L26.6681 31.7414L25.5128 27.6184L24.3575 31.7414L25.5128 32.0651ZM21.328 47V48.1998H22.2378L22.4833 47.3237L21.328 47ZM12.3824 47L11.217 47.2852L11.4409 48.1998H12.3824V47ZM7.00738 25.0392L8.17278 24.754L8.17134 24.7482L7.00738 25.0392ZM3.55201 22.9276H2.35223V24.1274H3.55201V22.9276ZM3.55201 20.1249V18.9251H2.35223V20.1249H3.55201ZM18.6021 20.1249H19.8019V18.9251H18.6021V20.1249ZM18.6021 22.9276V24.1274H19.8019V22.9276H18.6021ZM16.2985 25.0392L15.1273 25.2995L15.1284 25.3045L16.2985 25.0392ZM19.7539 40.2812L18.5838 40.5465L20.9094 40.6039L19.7539 40.2812ZM23.7851 25.8455L24.9407 26.1682L25.0319 25.8417L24.9387 25.5159L23.7851 25.8455ZM23.5548 25.0392L22.3987 25.3603L22.4012 25.3688L23.5548 25.0392ZM20.7521 22.9276H19.5523V24.1274H20.7521V22.9276ZM20.7521 20.1249V18.9251H19.5523V20.1249H20.7521ZM34.9575 20.1249H36.1573V18.9251H34.9575V20.1249ZM34.9575 22.9276V24.1274H36.1573V22.9276H34.9575ZM32.6539 25.0392L31.4899 25.3302L31.4932 25.3428L32.6539 25.0392ZM36.57 40.0125L35.4093 40.3161L37.7397 40.2794L36.57 40.0125ZM39.987 25.0392L38.8184 24.7674L38.8173 24.7723L39.987 25.0392ZM37.6834 22.9276H36.4836V24.1274H37.6834V22.9276ZM37.6834 20.1249V18.9251H36.4836V20.1249H37.6834ZM47.2816 20.1249H48.4814V18.9251H47.2816V20.1249ZM47.2816 22.9276V24.1274H48.4814V22.9276H47.2816ZM43.8263 25.0392L42.6609 24.754L37.2859 46.7148L38.4513 47L39.6166 47.2852L44.9917 25.3244L43.8263 25.0392ZM38.4513 47V45.8002H29.6977V47V48.1998H38.4513V47ZM29.6977 47L30.8529 46.6763L26.6681 31.7414L25.5128 32.0651L24.3575 32.3888L28.5424 47.3237L29.6977 47ZM25.5128 32.0651L24.3575 31.7414L20.1727 46.6763L21.328 47L22.4833 47.3237L26.6681 32.3888L25.5128 32.0651ZM21.328 47V45.8002H12.3824V47V48.1998H21.328V47ZM12.3824 47L13.5478 46.7148L8.17277 24.754L7.00738 25.0392L5.842 25.3244L11.217 47.2852L12.3824 47ZM7.00738 25.0392L8.17134 24.7482C7.99266 24.0335 7.75597 23.3069 7.34164 22.7494C6.86224 22.1044 6.17623 21.7278 5.31809 21.7278V22.9276V24.1274C5.38466 24.1274 5.39072 24.139 5.37247 24.1296C5.35605 24.1211 5.37225 24.1222 5.41576 24.1808C5.52933 24.3336 5.67657 24.6628 5.84342 25.3302L7.00738 25.0392ZM5.31809 22.9276V21.7278H3.55201V22.9276V24.1274H5.31809V22.9276ZM3.55201 22.9276H4.75179V20.1249H3.55201H2.35223V22.9276H3.55201ZM3.55201 20.1249V21.3247H18.6021V20.1249V18.9251H3.55201V20.1249ZM18.6021 20.1249H17.4023V22.9276H18.6021H19.8019V20.1249H18.6021ZM18.6021 22.9276V21.7278H17.2199V22.9276V24.1274H18.6021V22.9276ZM17.2199 22.9276V21.7278C16.3889 21.7278 15.6384 22.146 15.2571 22.9521C14.9256 23.653 14.9474 24.4901 15.1273 25.2995L16.2985 25.0392L17.4697 24.7789C17.4096 24.5085 17.3938 24.3071 17.3986 24.1672C17.4034 24.0259 17.4282 23.974 17.4263 23.9781C17.4201 23.9911 17.3877 24.0448 17.3154 24.0887C17.2467 24.1303 17.2013 24.1274 17.2199 24.1274V22.9276ZM16.2985 25.0392L15.1284 25.3045L18.5838 40.5465L19.7539 40.2812L20.924 40.016L17.4686 24.7739L16.2985 25.0392ZM19.7539 40.2812L20.9094 40.6039L24.9407 26.1682L23.7851 25.8455L22.6296 25.5228L18.5983 39.9585L19.7539 40.2812ZM23.7851 25.8455L24.9387 25.5159L24.7084 24.7096L23.5548 25.0392L22.4012 25.3688L22.6315 26.1751L23.7851 25.8455ZM23.5548 25.0392L24.7108 24.7181C24.5181 24.0243 24.2806 23.3056 23.8809 22.7579C23.4096 22.112 22.7321 21.7278 21.8655 21.7278V22.9276V24.1274C21.9317 24.1274 21.932 24.1388 21.9069 24.1257C21.8843 24.1138 21.8981 24.1115 21.9425 24.1723C22.0611 24.3348 22.2075 24.6719 22.3988 25.3603L23.5548 25.0392ZM21.8655 22.9276V21.7278H20.7521V22.9276V24.1274H21.8655V22.9276ZM20.7521 22.9276H21.9519V20.1249H20.7521H19.5523V22.9276H20.7521ZM20.7521 20.1249V21.3247H34.9575V20.1249V18.9251H20.7521V20.1249ZM34.9575 20.1249H33.7577V22.9276H34.9575H36.1573V20.1249H34.9575ZM34.9575 22.9276V21.7278H33.5753V22.9276V24.1274H34.9575V22.9276ZM33.5753 22.9276V21.7278C32.7555 21.7278 31.9954 22.1354 31.6038 22.9402C31.2568 23.6536 31.2837 24.5051 31.49 25.3302L32.6539 25.0392L33.8179 24.7482C33.7519 24.4842 33.7345 24.2903 33.7381 24.159C33.7417 24.0271 33.7656 23.9817 33.7616 23.9899C33.7537 24.0062 33.7216 24.0553 33.6563 24.0941C33.595 24.1306 33.5563 24.1274 33.5753 24.1274V22.9276ZM32.6539 25.0392L31.4932 25.3428L35.4093 40.3161L36.57 40.0125L37.7307 39.7089L33.8147 24.7356L32.6539 25.0392ZM36.57 40.0125L37.7397 40.2794L41.1567 25.3061L39.987 25.0392L38.8173 24.7723L35.4003 39.7455L36.57 40.0125ZM39.987 25.0392L41.1556 25.311C41.2614 24.8561 41.3301 24.4299 41.3394 24.0415C41.3486 23.6589 41.3025 23.2323 41.1065 22.8342C40.6352 21.8773 39.681 21.7278 39.0655 21.7278V22.9276V24.1274C39.2268 24.1274 39.2457 24.1495 39.1968 24.1286C39.1652 24.115 39.1157 24.0879 39.064 24.0399C39.0115 23.9911 38.9755 23.9384 38.9539 23.8944C38.9162 23.8179 38.9445 23.8159 38.9405 23.984C38.9366 24.1464 38.9046 24.3969 38.8184 24.7674L39.987 25.0392ZM39.0655 22.9276V21.7278H37.6834V22.9276V24.1274H39.0655V22.9276ZM37.6834 22.9276H38.8832V20.1249H37.6834H36.4836V22.9276H37.6834ZM37.6834 20.1249V21.3247H47.2816V20.1249V18.9251H37.6834V20.1249ZM47.2816 20.1249H46.0819V22.9276H47.2816H48.4814V20.1249H47.2816ZM47.2816 22.9276V21.7278H45.5156V22.9276V24.1274H47.2816V22.9276ZM45.5156 22.9276V21.7278C44.6574 21.7278 43.9714 22.1044 43.492 22.7494C43.0777 23.3069 42.841 24.0335 42.6623 24.7482L43.8263 25.0392L44.9902 25.3302C45.1571 24.6628 45.3043 24.3336 45.4179 24.1808C45.4614 24.1222 45.4776 24.1211 45.4612 24.1296C45.4429 24.139 45.449 24.1274 45.5156 24.1274V22.9276ZM63.3677 47.0768L63.0641 45.916L63.0624 45.9165L63.3677 47.0768ZM54.8061 44.4277L55.8933 43.9203L55.5702 43.2279H54.8061V44.4277ZM54.6141 44.4277V43.2279H54.0712L53.7129 43.6357L54.6141 44.4277ZM50.1221 47.1152L49.8643 45.9434L49.8404 45.9487L49.8168 45.9549L50.1221 47.1152ZM46.3596 37.4017L46.7305 38.5428L46.739 38.54L46.3596 37.4017ZM47.9337 36.9026L48.2866 38.0494L48.2999 38.0453L48.3131 38.0409L47.9337 36.9026ZM47.7802 30.0303L47.3589 28.9069L47.6881 31.2265L47.7802 30.0303ZM49.0471 30.4526L48.3816 31.4509L48.4132 31.4719L48.446 31.4909L49.0471 30.4526ZM44.5935 35.175L44.0073 36.2218L44.0181 36.2278L44.0289 36.2336L44.5935 35.175ZM43.0962 31.7964L44.2602 32.0874L44.2793 32.0109L44.2882 31.9326L43.0962 31.7964ZM62.5999 33.6008L61.4029 33.6831L61.4059 33.727L61.4121 33.7705L62.5999 33.6008ZM64.6347 40.6268V39.427H63.4349V40.6268H64.6347ZM66.8999 40.6268H68.0997V39.427H66.8999V40.6268ZM54.1918 37.1714H55.3916V35.4315L53.7653 36.05L54.1918 37.1714ZM66.8999 42.2009H65.7001C65.7001 43.2912 65.4731 44.0834 65.083 44.6473C64.7048 45.1939 64.0895 45.6479 63.0641 45.916L63.3677 47.0768L63.6713 48.2375C65.1415 47.853 66.2923 47.1168 67.0563 46.0125C67.8083 44.9255 68.0997 43.6061 68.0997 42.2009H66.8999ZM63.3677 47.0768L63.0624 45.9165C62.4452 46.0789 61.6661 46.1841 60.757 46.1841V47.3839V48.5837C61.8443 48.5837 62.8313 48.4586 63.673 48.2371L63.3677 47.0768ZM60.757 47.3839V46.1841C57.7723 46.1841 56.4463 45.1054 55.8933 43.9203L54.8061 44.4277L53.7189 44.935C54.7783 47.2053 57.1381 48.5837 60.757 48.5837V47.3839ZM54.8061 44.4277V43.2279H54.6141V44.4277V45.6274H54.8061V44.4277ZM54.6141 44.4277L53.7129 43.6357C52.7436 44.7387 51.5006 45.5834 49.8643 45.9434L50.1221 47.1152L50.3799 48.2869C52.5829 47.8023 54.2578 46.6506 55.5153 45.2197L54.6141 44.4277ZM50.1221 47.1152L49.8168 45.9549C49.2149 46.1133 48.5553 46.1841 47.7418 46.1841V47.3839V48.5837C48.6943 48.5837 49.5704 48.501 50.4275 48.2755L50.1221 47.1152ZM47.7418 47.3839V46.1841C46.1483 46.1841 45.0446 45.7257 44.3545 45.105C43.6713 44.4904 43.2978 43.6338 43.2978 42.6232H42.098H40.8982C40.8982 44.2617 41.5229 45.7854 42.7498 46.889C43.9697 47.9863 45.6879 48.5837 47.7418 48.5837V47.3839ZM42.098 42.6232H43.2978C43.2978 41.5286 43.5471 40.7601 44.0169 40.1678C44.5004 39.5584 45.325 38.9995 46.7304 38.5428L46.3596 37.4017L45.9888 36.2607C44.3227 36.8022 43.0166 37.5679 42.1371 38.6765C41.244 39.8023 40.8982 41.1454 40.8982 42.6232H42.098ZM46.3596 37.4017L46.739 38.54C47.3 38.353 47.7868 38.2032 48.2866 38.0494L47.9337 36.9026L47.5809 35.7559C47.0825 35.9093 46.571 36.0666 45.9802 36.2635L46.3596 37.4017ZM47.9337 36.9026L48.3131 38.0409C51.1971 37.0795 52.935 36.4361 53.9257 35.7833C54.4659 35.4273 54.89 35.0043 55.1389 34.4364C55.3736 33.901 55.3916 33.3632 55.3916 32.9482H54.1918H52.992C52.992 33.3202 52.962 33.4255 52.9411 33.4732C52.9345 33.4884 52.8955 33.5884 52.6054 33.7796C51.9356 34.221 50.5445 34.7677 47.5543 35.7644L47.9337 36.9026ZM54.1918 32.9482H55.3916C55.3916 31.9281 55.0793 30.761 54.1779 29.8458C53.2661 28.9202 51.9058 28.4082 50.1221 28.4082V29.608V30.8077C51.4483 30.8077 52.1228 31.1788 52.4684 31.5297C52.8244 31.8912 52.992 32.3941 52.992 32.9482H54.1918ZM50.1221 29.608V28.4082C48.9522 28.4082 48.0791 28.6368 47.3589 28.9069L47.7802 30.0303L48.2014 31.1537C48.7098 30.963 49.2956 30.8077 50.1221 30.8077V29.608ZM47.7802 30.0303L47.6881 31.2265C47.9886 31.2497 48.2124 31.3381 48.3816 31.4509L49.0471 30.4526L49.7126 29.4543C49.1908 29.1065 48.5699 28.8877 47.8722 28.834L47.7802 30.0303ZM49.0471 30.4526L48.446 31.4909C48.715 31.6467 48.9607 31.9941 48.9607 32.641H50.1605H51.3603C51.3603 31.3682 50.8381 30.1032 49.6483 29.4143L49.0471 30.4526ZM50.1605 32.641H48.9607C48.9607 33.3194 48.7096 33.7229 48.3691 33.9872C47.9897 34.2816 47.3982 34.4743 46.6668 34.4743V35.6741V36.8738C47.7782 36.8738 48.9335 36.5866 49.8403 35.8828C50.786 35.1489 51.3603 34.0358 51.3603 32.641H50.1605ZM46.6668 35.6741V34.4743C46.0574 34.4743 45.5603 34.3308 45.1581 34.1163L44.5935 35.175L44.0289 36.2336C44.7786 36.6334 45.6636 36.8738 46.6668 36.8738V35.6741ZM44.5935 35.175L45.1798 34.1281C44.6484 33.8306 44.2576 33.2649 44.2576 32.2955H43.0578H41.858C41.858 34.0135 42.619 35.4443 44.0073 36.2218L44.5935 35.175ZM43.0578 32.2955H44.2576C44.2576 32.2141 44.2579 32.1604 44.2605 32.1125C44.2618 32.0906 44.2631 32.0771 44.264 32.0705C44.2649 32.0634 44.2645 32.0702 44.2602 32.0874L43.0962 31.7964L41.9322 31.5054C41.851 31.8303 41.858 32.1811 41.858 32.2955H43.0578ZM43.0962 31.7964L44.2882 31.9326C44.3933 31.0136 44.9433 30.0342 46.2639 29.2467C47.6102 28.4438 49.7549 27.8515 52.9248 27.8515V26.6517V25.4519C49.4912 25.4519 46.8751 26.0882 45.0348 27.1858C43.1687 28.2987 42.1063 29.8917 41.9042 31.6601L43.0962 31.7964ZM52.9248 26.6517V27.8515C55.7672 27.8515 57.8141 28.3227 59.164 29.2345C60.4418 30.0975 61.2503 31.4621 61.4029 33.6831L62.5999 33.6008L63.7968 33.5186C63.6039 30.7101 62.512 28.6001 60.5071 27.246C58.5744 25.9405 55.9566 25.4519 52.9248 25.4519V26.6517ZM62.5999 33.6008L61.4121 33.7705C61.4363 33.94 61.4385 34.1216 61.4385 34.4455H62.6382H63.838C63.838 34.1551 63.8401 33.7992 63.7876 33.4312L62.5999 33.6008ZM62.6382 34.4455H61.4385V42.3161H62.6382H63.838V34.4455H62.6382ZM62.6382 42.3161H61.4385C61.4385 42.9498 61.507 43.6556 61.8799 44.2149C62.3421 44.9083 63.0508 45.0899 63.6365 45.0899V43.8902V42.6904C63.5675 42.6904 63.5945 42.6797 63.666 42.7107C63.7041 42.7272 63.7468 42.7522 63.7881 42.7869C63.8293 42.8214 63.8581 42.8564 63.8765 42.8839C63.9098 42.9339 63.8948 42.9382 63.8747 42.8348C63.8548 42.7327 63.838 42.5682 63.838 42.3161H62.6382ZM63.6365 43.8902V45.0899C64.2588 45.0899 64.9022 44.8374 65.3353 44.217C65.7162 43.6714 65.8345 42.9796 65.8345 42.2777H64.6347H63.4349C63.4349 42.5079 63.4141 42.6619 63.3917 42.7575C63.3693 42.8529 63.3505 42.8682 63.3678 42.8434C63.3901 42.8115 63.4389 42.7612 63.5139 42.725C63.5838 42.6913 63.6335 42.6904 63.6365 42.6904V43.8902ZM64.6347 42.2777H65.8345V40.6268H64.6347H63.4349V42.2777H64.6347ZM64.6347 40.6268V41.8265H66.8999V40.6268V39.427H64.6347V40.6268ZM66.8999 40.6268H65.7001V42.2009H66.8999H68.0997V40.6268H66.8999ZM52.2721 43.2375V44.4373C53.0152 44.4373 53.8021 44.1498 54.4059 43.5539C55.0274 42.9405 55.3916 42.0648 55.3916 41.0107H54.1918H52.992C52.992 41.4923 52.8379 41.73 52.7203 41.8461C52.585 41.9796 52.4121 42.0377 52.2721 42.0377V43.2375ZM54.1918 41.0107H55.3916V37.1714H54.1918H52.992V41.0107H54.1918ZM54.1918 37.1714L53.7653 36.05C52.3723 36.5797 51.2236 37.1501 50.4275 37.9336C49.5616 38.7859 49.1911 39.8082 49.1911 41.0107H50.3909H51.5907C51.5907 40.3703 51.7577 39.9913 52.1107 39.6438C52.5336 39.2275 53.2853 38.7997 54.6182 38.2928L54.1918 37.1714ZM50.3909 41.0107H49.1911C49.1911 41.9146 49.4233 42.7809 49.9903 43.4395C50.5764 44.1204 51.3988 44.4373 52.2721 44.4373V43.2375V42.0377C51.9937 42.0377 51.8755 41.9515 51.8089 41.8741C51.7231 41.7745 51.5907 41.5273 51.5907 41.0107H50.3909ZM66.9647 47.9214L67.3571 49.0552L70.4467 47.9857L67.3987 46.8029L66.9647 47.9214ZM63.7396 41.9705L62.5905 41.6258L62.5825 41.6525L62.5757 41.6795L63.7396 41.9705ZM67.6173 38.5151L68.0209 39.645L70.3116 38.8269L68.2683 37.5073L67.6173 38.5151ZM64.7763 32.1035L65.9338 32.4192L65.9367 32.4084L65.9395 32.3975L64.7763 32.1035ZM76.1022 26.6901L75.9828 27.8839L76.8378 27.9694L77.194 27.1875L76.1022 26.6901ZM82.2451 25.8838L81.0616 26.0811L81.0741 26.1559L81.0959 26.2286L82.2451 25.8838ZM82.437 24.1178L83.4545 24.7536L84.9279 22.3961L82.2017 22.9413L82.437 24.1178ZM81.8611 24.2713L82.2405 25.4096L82.274 25.3984L82.3067 25.3853L81.8611 24.2713ZM79.0585 27.1892L77.9527 26.7236L77.4247 27.9777L78.735 28.3446L79.0585 27.1892ZM84.6638 32.1035L83.4967 32.3814L83.5012 32.4004L83.5063 32.4192L84.6638 32.1035ZM70.6888 39.7821L71.0045 38.6246L70.8363 38.5788L70.6621 38.5826L70.6888 39.7821ZM87.2362 47.7295H86.0364C86.0364 49.5871 85.1737 51.0496 83.4045 52.1087C81.5725 53.2054 78.7562 53.8628 74.9888 53.8628V55.0625V56.2623C78.9768 56.2623 82.2842 55.5759 84.637 54.1675C87.0527 52.7214 88.4359 50.5174 88.4359 47.7295H87.2362ZM74.9888 55.0625V53.8628C71.8275 53.8628 69.2714 53.6758 67.5351 53.1388C66.6745 52.8727 66.1177 52.5504 65.786 52.213C65.4867 51.9085 65.3234 51.5475 65.3234 51.0313H64.1236H62.9238C62.9238 52.1659 63.3268 53.1343 64.0749 53.8952C64.7906 54.6232 65.7623 55.1023 66.8262 55.4313C68.9388 56.0846 71.8152 56.2623 74.9888 56.2623V55.0625ZM64.1236 51.0313H65.3234C65.3234 50.6357 65.4382 50.3171 65.6958 50.0246C65.975 49.7076 66.4795 49.359 67.3571 49.0552L66.9647 47.9214L66.5722 46.7877C65.4534 47.1749 64.5373 47.7094 63.8951 48.4386C63.2313 49.1923 62.9238 50.0831 62.9238 51.0313H64.1236ZM66.9647 47.9214L67.3987 46.8029C66.2927 46.3737 65.6523 45.8267 65.2813 45.2852C64.9099 44.7432 64.7475 44.1178 64.7475 43.4295H63.5477H62.3479C62.3479 44.5072 62.6078 45.6286 63.3018 46.6415C63.9962 47.655 65.0643 48.4709 66.5306 49.0399L66.9647 47.9214ZM63.5477 43.4295H64.7475C64.7475 43.015 64.8053 42.6548 64.9036 42.2615L63.7396 41.9705L62.5757 41.6795C62.4436 42.2077 62.3479 42.7689 62.3479 43.4295H63.5477ZM63.7396 41.9705L64.8888 42.3153C65.2017 41.2725 66.0829 40.3372 68.0209 39.645L67.6173 38.5151L67.2138 37.3853C64.8518 38.2288 63.1991 39.5971 62.5905 41.6258L63.7396 41.9705ZM67.6173 38.5151L68.2683 37.5073C66.6805 36.4818 65.8225 35.1345 65.8225 33.4857H64.6227H63.4229C63.4229 36.1369 64.8685 38.1681 66.9664 39.523L67.6173 38.5151ZM64.6227 33.4857H65.8225C65.8225 33.0407 65.8577 32.698 65.9338 32.4192L64.7763 32.1035L63.6188 31.7878C63.4644 32.3537 63.4229 32.9324 63.4229 33.4857H64.6227ZM64.7763 32.1035L65.9395 32.3975C66.2765 31.0641 67.2492 29.9434 68.8093 29.1318C70.3784 28.3156 72.481 27.8515 74.8736 27.8515V26.6517V25.4519C72.1983 25.4519 69.6938 25.9669 67.7019 27.0031C65.7011 28.0439 64.1591 29.6492 63.6131 31.8095L64.7763 32.1035ZM74.8736 26.6517V27.8515C75.31 27.8515 75.6696 27.8526 75.9828 27.8839L76.1022 26.6901L76.2216 25.4963C75.7669 25.4508 75.2819 25.4519 74.8736 25.4519V26.6517ZM76.1022 26.6901L77.194 27.1875C78.6325 24.0299 80.9235 22.2077 84.0112 22.2077V21.0079V19.8082C79.7274 19.8082 76.7201 22.4396 75.0104 26.1927L76.1022 26.6901ZM84.0112 21.0079V22.2077C85.0188 22.2077 85.6971 22.5066 86.111 22.8882C86.5191 23.2646 86.7659 23.8073 86.7659 24.5017H87.9656H89.1654C89.1654 23.1997 88.6827 21.9955 87.7375 21.1241C86.798 20.2579 85.4991 19.8082 84.0112 19.8082V21.0079ZM87.9656 24.5017H86.7659C86.7659 25.1843 86.5324 25.6405 86.235 25.9276C85.9286 26.2234 85.4789 26.4118 84.9326 26.4118V27.6115V28.8113C86.0371 28.8113 87.104 28.4238 87.9014 27.6541C88.7078 26.8758 89.1654 25.7771 89.1654 24.5017H87.9656ZM84.9326 27.6115V26.4118C83.9765 26.4118 83.5413 26.0293 83.3943 25.5391L82.2451 25.8838L81.0959 26.2286C81.6399 28.042 83.2779 28.8113 84.9326 28.8113V27.6115ZM82.2451 25.8838L83.4285 25.6866C83.3891 25.4501 83.3681 25.3111 83.3681 25.1544H82.1683H80.9685C80.9685 25.5352 81.0242 25.8569 81.0616 26.0811L82.2451 25.8838ZM82.1683 25.1544H83.3681C83.3681 24.9348 83.4101 24.8246 83.4545 24.7536L82.437 24.1178L81.4196 23.4819C81.08 24.0252 80.9685 24.6061 80.9685 25.1544H82.1683ZM82.437 24.1178L82.2017 22.9413C82.0238 22.9769 81.7254 23.0334 81.4156 23.1574L81.8611 24.2713L82.3067 25.3853C82.3808 25.3557 82.4664 25.3354 82.6723 25.2943L82.437 24.1178ZM81.8611 24.2713L81.4817 23.1331C79.9119 23.6564 78.659 25.0462 77.9527 26.7236L79.0585 27.1892L80.1642 27.6548C80.6865 26.4143 81.5068 25.6541 82.2405 25.4096L81.8611 24.2713ZM79.0585 27.1892L78.735 28.3446C81.3877 29.0873 83.0609 30.5511 83.4967 32.3814L84.6638 32.1035L85.831 31.8256C85.115 28.8184 82.4882 26.9036 79.382 26.0339L79.0585 27.1892ZM84.6638 32.1035L83.5063 32.4192C83.5824 32.698 83.6176 33.0407 83.6176 33.4857H84.8174H86.0172C86.0172 32.9324 85.9757 32.3537 85.8213 31.7878L84.6638 32.1035ZM84.8174 33.4857H83.6176C83.6176 35.1631 82.7886 36.5107 81.2801 37.4894C79.7373 38.4904 77.4976 39.0814 74.8736 39.0814V40.2812V41.481C77.8166 41.481 80.5488 40.8243 82.5861 39.5025C84.6578 38.1584 86.0172 36.1082 86.0172 33.4857H84.8174ZM74.8736 40.2812V39.0814C73.4534 39.0814 72.1435 38.9352 71.0045 38.6246L70.6888 39.7821L70.3731 40.9396C71.768 41.3201 73.2992 41.481 74.8736 41.481V40.2812ZM70.6888 39.7821L70.6621 38.5826C69.7137 38.6037 68.8815 38.7597 68.252 39.1542C67.5338 39.6043 67.1854 40.3001 67.1854 41.0491H68.3852H69.585C69.585 41.0466 69.5842 41.0869 69.555 41.1404C69.5252 41.1949 69.4973 41.2056 69.5262 41.1875C69.6166 41.1309 69.9362 40.9989 70.7154 40.9816L70.6888 39.7821ZM68.3852 41.0491H67.1854C67.1854 41.4714 67.2915 41.9459 67.6307 42.3637C67.9522 42.7598 68.384 42.9811 68.7938 43.1154C69.5701 43.3698 70.6822 43.439 72.1093 43.439V42.2393V41.0395C70.657 41.0395 69.907 40.9551 69.5411 40.8352C69.3798 40.7823 69.4205 40.7613 69.4937 40.8514C69.5845 40.9633 69.585 41.0683 69.585 41.0491H68.3852ZM72.1093 42.2393V43.439H78.9433V42.2393V41.0395H72.1093V42.2393ZM78.9433 42.2393V43.439C81.7672 43.439 83.5474 43.9203 84.5948 44.646C85.5568 45.3125 86.0364 46.2802 86.0364 47.7295H87.2362H88.4359C88.4359 45.6466 87.687 43.8692 85.9614 42.6736C84.3214 41.5373 81.9551 41.0395 78.9433 41.0395V42.2393ZM72.4933 33.3705H71.2935C71.2935 35.0047 71.4716 36.3863 72.004 37.392C72.2842 37.9213 72.6746 38.3698 73.1995 38.6768C73.7214 38.982 74.2962 39.1006 74.8736 39.1006V37.9009V36.7011C74.6256 36.7011 74.4901 36.6518 74.4109 36.6054C74.3348 36.5609 74.2332 36.4742 74.1247 36.2693C73.8797 35.8065 73.693 34.9229 73.693 33.3705H72.4933ZM74.8736 37.9009V39.1006C75.4506 39.1006 76.0263 38.9821 76.5467 38.6703C77.0703 38.3565 77.4494 37.9001 77.7162 37.37C78.2204 36.3682 78.377 34.9915 78.377 33.3705H77.1772H75.9774C75.9774 34.9361 75.8077 35.8246 75.5728 36.2913C75.47 36.4955 75.3764 36.5741 75.3134 36.6119C75.2471 36.6517 75.1221 36.7011 74.8736 36.7011V37.9009ZM77.1772 33.3705H78.377C78.377 31.8044 78.2203 30.4595 77.7088 29.4765C77.4378 28.9556 77.0549 28.5115 76.5326 28.2081C76.0153 27.9077 75.445 27.7939 74.8736 27.7939V28.9937V30.1935C75.1277 30.1935 75.2581 30.2428 75.3275 30.2831C75.3918 30.3205 75.4817 30.3947 75.5801 30.584C75.8078 31.0216 75.9774 31.8652 75.9774 33.3705H77.1772ZM74.8736 28.9937V27.7939C74.3017 27.7939 73.7323 27.9078 73.2135 28.2019C72.6902 28.4986 72.2963 28.9345 72.0119 29.4543C71.4719 30.4408 71.2935 31.7905 71.2935 33.3705H72.4933H73.693C73.693 31.879 73.8793 31.0403 74.1168 30.6063C74.2211 30.4158 74.3191 30.3334 74.3969 30.2894C74.4792 30.2427 74.6201 30.1935 74.8736 30.1935V28.9937ZM74.9504 52.5286V53.7284C77.1239 53.7284 78.7849 53.568 79.9387 53.1815C80.5229 52.9858 81.0711 52.702 81.4817 52.2662C81.9216 51.7994 82.1395 51.2249 82.1395 50.6089H80.9397H79.7399C79.7399 50.6265 79.7466 50.6087 79.7354 50.6206C79.695 50.6635 79.552 50.7804 79.1765 50.9062C78.4106 51.1628 77.0769 51.3288 74.9504 51.3288V52.5286ZM80.9397 50.6089H82.1395C82.1395 50.0456 82.0013 49.4524 81.5833 48.9374C81.1826 48.4436 80.6268 48.1493 80.0414 47.9603C78.9158 47.5968 77.2372 47.4895 74.9504 47.4895V48.6893V49.8891C77.2708 49.8891 78.5868 50.0121 79.3041 50.2437C79.6401 50.3523 79.7179 50.4467 79.7202 50.4496C79.721 50.4506 79.7213 50.451 79.7212 50.4509C79.7212 50.4509 79.7211 50.4508 79.7211 50.4507C79.7211 50.4507 79.721 50.4506 79.721 50.4506C79.721 50.4506 79.721 50.4506 79.721 50.4506C79.721 50.4506 79.721 50.4506 79.721 50.4506C79.7211 50.4507 79.7211 50.4508 79.7212 50.4509C79.7213 50.4512 79.7215 50.4516 79.7218 50.4523C79.7223 50.4536 79.7233 50.4561 79.7245 50.4601C79.7293 50.4757 79.7399 50.5202 79.7399 50.6089H80.9397ZM74.9504 48.6893V47.4895C72.6825 47.4895 71.0128 47.5968 69.8912 47.9609C69.3077 48.1503 68.7537 48.4451 68.3542 48.9388C67.9379 49.4533 67.7997 50.0457 67.7997 50.6089H68.9995H70.1993C70.1993 50.5202 70.2099 50.4755 70.2148 50.4596C70.2184 50.448 70.2195 50.4482 70.2195 50.4482C70.2219 50.4452 70.299 50.3513 70.6321 50.2432C71.3438 50.0122 72.6495 49.8891 74.9504 49.8891V48.6893ZM68.9995 50.6089H67.7997C67.7997 51.2324 68.0186 51.8131 68.4635 52.2838C68.8785 52.7228 69.4312 53.0049 70.0153 53.1976C71.1681 53.5781 72.8188 53.7284 74.9504 53.7284V52.5286V51.3288C72.8588 51.3288 71.5341 51.172 70.7672 50.9189C70.3914 50.7949 70.2483 50.6787 70.2073 50.6354C70.1963 50.6238 70.1993 50.6382 70.1993 50.6089H68.9995ZM98.9307 19.357H100.131V18.1573H98.9307V19.357ZM101.618 44.3893H102.818V43.1895H101.618V44.3893ZM101.618 47V48.1998H102.818V47H101.618ZM87.7968 47H86.597V48.1998H87.7968V47ZM87.7968 44.3893V43.1895H86.597V44.3893H87.7968ZM87.7968 21.9678H86.597V23.1675H87.7968V21.9678ZM87.7968 19.357V18.1573H86.597V19.357H87.7968ZM98.9307 19.357H97.731V43.0455H98.9307H100.131V19.357H98.9307ZM98.9307 43.0455H97.731C97.731 43.7413 97.9384 44.4 98.4093 44.8923C98.8792 45.3835 99.4979 45.5891 100.083 45.5891V44.3893V43.1895C100.066 43.1895 100.068 43.1867 100.084 43.1929C100.102 43.1999 100.124 43.2137 100.143 43.2336C100.163 43.2537 100.162 43.2633 100.155 43.2432C100.147 43.221 100.131 43.16 100.131 43.0455H98.9307ZM100.083 44.3893V45.5891H101.618V44.3893V43.1895H100.083V44.3893ZM101.618 44.3893H100.418V47H101.618H102.818V44.3893H101.618ZM101.618 47V45.8002H87.7968V47V48.1998H101.618V47ZM87.7968 47H88.9965V44.3893H87.7968H86.597V47H87.7968ZM87.7968 44.3893V45.5891H89.3325V44.3893V43.1895H87.7968V44.3893ZM89.3325 44.3893V45.5891C89.9218 45.5891 90.5531 45.392 91.0296 44.8822C91.4996 44.3794 91.6841 43.7173 91.6841 43.0455H90.4843H89.2845C89.2845 43.1692 89.2676 43.2359 89.2591 43.2612C89.2515 43.2836 89.2521 43.2699 89.2767 43.2436C89.3018 43.2167 89.3311 43.1992 89.3522 43.191C89.3703 43.1839 89.3671 43.1895 89.3325 43.1895V44.3893ZM90.4843 43.0455H91.6841V23.3115H90.4843H89.2845V43.0455H90.4843ZM90.4843 23.3115H91.6841C91.6841 22.6397 91.4996 21.9776 91.0296 21.4748C90.5531 20.965 89.9218 20.768 89.3325 20.768V21.9678V23.1675C89.3671 23.1675 89.3703 23.1731 89.3522 23.1661C89.3311 23.1578 89.3018 23.1403 89.2767 23.1134C89.2521 23.0871 89.2515 23.0734 89.2591 23.0959C89.2676 23.1211 89.2845 23.1878 89.2845 23.3115H90.4843ZM89.3325 21.9678V20.768H87.7968V21.9678V23.1675H89.3325V21.9678ZM87.7968 21.9678H88.9965V19.357H87.7968H86.597V21.9678H87.7968ZM87.7968 19.357V20.5568H98.9307V19.357V18.1573H87.7968V19.357ZM123.73 39.8589L124.916 40.0398L125.127 38.6591H123.73V39.8589ZM124.037 37.133V38.3328H125.237V37.133H124.037ZM111.444 37.133V35.9332H110.244V37.133H111.444ZM111.559 39.091L112.754 38.9767L112.752 38.9545L112.749 38.9325L111.559 39.091ZM120.582 39.8589V38.6591H119.568L119.399 39.659L120.582 39.8589ZM111.521 34.5223L110.323 34.4474L110.244 35.7221H111.521V34.5223ZM116.512 34.5223V35.7221H117.749L117.711 34.4852L116.512 34.5223ZM123.73 39.8589L122.544 39.678C122.236 41.6964 121.373 43.2909 120.022 44.3894C118.665 45.4924 116.706 46.1841 114.055 46.1841V47.3839V48.5837C117.124 48.5837 119.657 47.7781 121.535 46.2512C123.419 44.7198 124.533 42.5518 124.916 40.0398L123.73 39.8589ZM114.055 47.3839V46.1841C111.141 46.1841 108.627 45.3054 106.859 43.7596C105.11 42.2301 104.006 39.9754 104.006 37.0178H102.806H101.606C101.606 40.6254 102.978 43.5538 105.279 45.566C107.562 47.5621 110.672 48.5837 114.055 48.5837V47.3839ZM102.806 37.0178H104.006C104.006 34.0602 105.11 31.8055 106.859 30.276C108.627 28.7303 111.141 27.8515 114.055 27.8515V26.6517V25.4519C110.672 25.4519 107.562 26.4736 105.279 28.4696C102.978 30.4818 101.606 33.4102 101.606 37.0178H102.806ZM114.055 26.6517V27.8515C116.614 27.8515 118.786 28.6374 120.312 30.1186C121.83 31.5914 122.837 33.8766 122.837 37.133H124.037H125.237C125.237 33.3635 124.056 30.408 121.984 28.3967C119.92 26.3937 117.101 25.4519 114.055 25.4519V26.6517ZM124.037 37.133V35.9332H111.444V37.133V38.3328H124.037V37.133ZM111.444 37.133H110.244C110.244 37.9028 110.285 38.6099 110.37 39.2496L111.559 39.091L112.749 38.9325C112.68 38.4204 112.644 37.8222 112.644 37.133H111.444ZM111.559 39.091L110.365 39.2054C110.547 41.1039 111.006 42.6828 111.951 43.7941C112.948 44.966 114.323 45.4355 115.898 45.4355V44.2357V43.0359C114.823 43.0359 114.202 42.7376 113.779 42.2394C113.303 41.6806 112.917 40.6872 112.754 38.9767L111.559 39.091ZM115.898 44.2357V45.4355C117.457 45.4355 118.82 44.9274 119.859 43.9387C120.883 42.9637 121.503 41.6087 121.765 40.0588L120.582 39.8589L119.399 39.659C119.2 40.835 118.764 41.6684 118.205 42.2003C117.66 42.7185 116.911 43.0359 115.898 43.0359V44.2357ZM120.582 39.8589V41.0587H123.73V39.8589V38.6591H120.582V39.8589ZM114.132 29.2624V28.0626C113.53 28.0626 112.947 28.2212 112.429 28.577C111.923 28.9247 111.547 29.4132 111.266 29.9688C110.721 31.0475 110.441 32.5634 110.323 34.4474L111.521 34.5223L112.718 34.5971C112.831 32.7954 113.089 31.6814 113.407 31.0516C113.558 30.753 113.696 30.6176 113.787 30.555C113.867 30.5004 113.966 30.4622 114.132 30.4622V29.2624ZM111.521 34.5223V35.7221H116.512V34.5223V33.3225H111.521V34.5223ZM116.512 34.5223L117.711 34.4852C117.653 32.6146 117.472 31.0926 116.996 30.012C116.746 29.4465 116.389 28.9363 115.868 28.5746C115.337 28.207 114.738 28.0626 114.132 28.0626V29.2624V30.4622C114.35 30.4622 114.447 30.5098 114.5 30.5465C114.562 30.5892 114.675 30.6957 114.8 30.9796C115.072 31.5979 115.255 32.7059 115.313 34.5594L116.512 34.5223Z" fill="#B36843" mask="url(#path-7-outside-2_189_43)"/>
</g>
<defs>
<clipPath id="clip0_189_43">
<rect width="64" height="64" fill="white"/>
</clipPath>
</defs>
</svg>
