<svg width="202" height="61" viewBox="0 0 202 61" fill="none" xmlns="http://www.w3.org/2000/svg">
<path d="M201.068 35.096C199.916 42.648 194.476 47.64 184.94 47.64C174.444 47.64 166.188 41.304 166.188 30.36C166.188 19.416 174.444 13.08 184.94 13.08C194.284 13.08 201.58 18.84 201.58 30.552H180.588C180.588 31.768 180.652 32.856 180.78 33.816C181.356 39.832 183.596 42.392 188.012 42.392C192.3 42.392 195.052 39.64 195.82 35.096H201.068ZM185.068 17.432C182.508 17.432 181.1 20.056 180.716 26.2H189.036C188.844 19.992 187.82 17.432 185.068 17.432Z" fill="white"/>
<path d="M159.729 0.919983V40.408C159.729 41.944 160.624 42.648 161.648 42.648H164.208V47H141.169V42.648H143.729C144.817 42.648 145.648 41.944 145.648 40.408V7.51198C145.648 5.97598 144.817 5.27198 143.729 5.27198H141.169V0.919983H159.729Z" fill="white"/>
<path d="M140.234 48.216C140.234 55.96 132.746 60.44 119.818 60.44C109.258 60.44 101.706 59.224 101.706 53.72C101.706 51.48 103.114 49.688 106.442 48.536C102.154 46.872 100.746 43.992 100.746 41.048C100.746 40.152 100.874 39.384 101.066 38.616C101.834 36.056 103.946 34.136 107.53 32.856C104.458 30.872 102.538 28.056 102.538 24.472C102.538 23.64 102.602 22.872 102.794 22.168C104.266 16.344 111.178 13.08 119.626 13.08C120.33 13.08 121.034 13.08 121.674 13.144C124.298 7.384 128.714 3.672 134.858 3.672C139.018 3.672 141.45 6.168 141.45 9.496C141.45 12.76 139.146 14.68 136.394 14.68C134.218 14.68 132.49 13.72 131.914 11.8C131.85 11.416 131.786 11.032 131.786 10.584C131.786 9.944 131.914 9.368 132.234 8.856C131.914 8.92 131.594 8.984 131.274 9.112C129.354 9.752 127.626 11.544 126.602 13.976C131.402 15.32 134.986 18.136 135.946 22.168C136.138 22.872 136.202 23.64 136.202 24.472C136.202 31.64 128.906 35.8 119.626 35.8C117.13 35.8 114.762 35.544 112.65 34.968C109.77 35.032 108.81 35.928 108.81 37.08C108.81 38.552 110.218 39.064 115.018 39.064H126.41C136.138 39.064 140.234 42.328 140.234 48.216ZM115.658 24.28C115.658 29.592 116.874 31.832 119.626 31.832C122.378 31.832 123.466 29.592 123.466 24.28C123.466 19.16 122.378 16.984 119.626 16.984C116.874 16.984 115.658 19.16 115.658 24.28ZM119.754 56.216C126.922 56.216 129.738 55.128 129.738 53.016C129.738 50.584 127.434 49.816 119.754 49.816C112.138 49.816 109.834 50.584 109.834 53.016C109.834 55.192 112.714 56.216 119.754 56.216Z" fill="white"/>
<path d="M106.334 39C106.334 43.16 104.606 46.04 100.446 47.128C99.23 47.448 97.758 47.64 96.094 47.64C90.59 47.64 87.518 45.592 86.174 42.712H85.854C83.998 44.824 81.566 46.488 78.366 47.192C77.15 47.512 75.87 47.64 74.398 47.64C68.318 47.64 64.99 44.12 64.99 39.704C64.99 35.416 66.974 32.664 72.094 31C73.054 30.68 73.886 30.424 74.718 30.168C84.51 26.904 85.15 26.2 85.15 23.576C85.15 20.952 83.55 18.008 78.366 18.008C76.702 18.008 75.486 18.328 74.462 18.712C75.294 18.776 75.998 19.032 76.574 19.416C77.79 20.12 78.43 21.464 78.43 23.064C78.43 26.52 75.678 28.12 72.606 28.12C71.262 28.12 70.11 27.8 69.15 27.288C67.55 26.392 66.59 24.728 66.59 22.488C66.59 22.232 66.59 21.912 66.654 21.656C67.166 17.176 72.03 13.08 83.038 13.08C92.83 13.08 98.59 16.28 99.166 24.664C99.23 25.112 99.23 25.56 99.23 26.072V39.192C99.23 41.176 99.742 41.816 100.894 41.816C101.854 41.816 102.558 41.112 102.558 39.128V36.376H106.334V39ZM81.95 40.728C83.422 40.728 85.15 39.576 85.15 37.016V30.616C80.606 32.344 78.814 33.944 78.814 37.016C78.814 39.384 80.03 40.728 81.95 40.728Z" fill="white"/>
<path d="M67.871 10.392L58.911 47H44.319L37.343 22.104L30.367 47H15.455L6.495 10.392C5.919 8.08801 5.215 6.87201 3.679 6.87201H0.735001V2.20001H25.823V6.87201H23.519C22.175 6.87201 21.471 8.08801 21.983 10.392L27.743 35.8L34.463 11.736L34.079 10.392C33.439 8.08801 32.799 6.87201 31.263 6.87201H29.407V2.20001H53.087V6.87201H50.783C49.439 6.87201 48.671 8.08801 49.247 10.392L55.775 35.352L61.471 10.392C62.111 7.64001 61.535 6.87201 59.935 6.87201H57.631V2.20001H73.631V6.87201H70.687C69.151 6.87201 68.447 8.08801 67.871 10.392Z" fill="white"/>
</svg>
